<!-- Generator: Adobe Illustrator 18.0.0, SVG Export Plug-In  -->
<svg version="1.1"
   xmlns="http://www.w3.org/2000/svg" xmlns:xlink="http://www.w3.org/1999/xlink" xmlns:a="http://ns.adobe.com/AdobeSVGViewerExtensions/3.0/"
   x="0px" y="0px" width="225.4px" height="136.5px" viewBox="0 0 225.4 136.5" enable-background="new 0 0 225.4 136.5"
   xml:space="preserve">
<defs>
</defs>
<g>
  <path fill="#C2185B" d="M200.9,61.9c-1.3,0.8-2.5,2-3.9,2.3c-8.4,2-16.7,4.3-25.2,5.5c-10.9,1.5-14.4-1.6-15.9-13
    c-5.1,1.8-10.2,3.3-15.1,5.3c-5,2-5.5,2.1-8.1-2.4c-1.4,0.4-2.8,0.6-4.2,1.2c-2.4,1.1-4.1,0.6-5.4-1.7c-1.6-2.8-3.6-2.8-5.7-0.6
    c-7.3,7.4-14.5,14.9-21.8,22.2c-0.8,0.8-2.4,0.6-3.7,0.9c0.1-1.4-0.5-3.3,0.3-4.1c10.4-10.6,21-21,31.3-31.6
    c4.5-4.6,8.3-9.9,12.6-14.7c0.9-1,2.5-1.2,3.8-1.8c1.2-0.6,2.6-1.1,3.7-1.9c10.9-8.6,21.7-17.3,32.6-25.9c1.5-1.2,3.5-2.7,4.6-0.1
    c0.5,1.1-0.6,3.5-1.7,4.5c-16.8,14.5-33.8,28.9-50.7,43.3c-0.7,0.6-1.2,1.3-2,2.2c6.3-1.2,6.3-1.2,6.5,3.8c2.7-1.1,5.3-2.2,7.8-3.3
    c4.1-1.9,4.7-1.7,5.3,3.6c5.4-2.4,11.2-2.1,16-6.6c13-12.3,27.3-22.8,43.9-29.8c3.8-1.6,7.9-2.7,11.9-3.9c2.5-0.7,5.1-1.3,6.9,1.5
    c1.9,2.9,0.6,5.4-1.6,7.1c-6.8,5.2-13.3,11.3-20.8,15.1c-11.9,6-24.5,10.5-36.9,15.3c-3.6,1.4-5,3.7-4.9,6.9c0.1,3.5,3,4.9,6,4.8
    c5.2-0.2,10.5-0.9,15.6-1.7c6.2-1,12.3-2.3,18.5-3.4C200.6,61,200.7,61.4,200.9,61.9z M220.9,19.6c-20.3,3.5-36.1,15.3-51.1,28.2
    C188.5,41.5,207.4,35.5,220.9,19.6z"/>
  <path fill="#C2185B" d="M15.6,122.5c6.9-7.2,13.8-14.5,21.4-22.5c-0.7,1.8-0.8,2.8-1.4,3.5c-8.6,11.6-18,22.5-29.5,31.5
    c-1.7,1.3-3.4,2.9-6.2-0.3c27.4-33.5,51.4-69.5,69.1-109.4c-3.9,5.6-7.8,11.1-11.6,16.7C53,48.6,48.4,55.3,44,62.1
    c-0.9,1.4-1.3,3.2-2.2,4.6c-0.5,0.9-1.6,1.4-2.5,2.1c-0.5-1.1-1.6-2.5-1.2-3.2c1.2-2.7,2.8-5.2,4.5-7.6
    c9.6-13.8,19.3-27.6,28.9-41.4c1.3-1.9,2.7-3.7,4.4-5.3c0.9-0.8,2.5-1,3.7-1.4c0.2,1.4,0.9,2.9,0.4,4c-1.4,3.5-3,6.9-4.8,10.3
    c-15.6,30.4-32.4,60-52.9,87.5c-2.5,3.4-5.2,6.7-7.8,10.1C15,122,15.3,122.2,15.6,122.5z"/>
  <path fill="#C2185B" d="M72.7,61.1c2.7-1.9,5.3-3.8,8-5.6c1-0.7,2.7-1.8,3.2-1.5c4.3,3.2,7.3-0.1,10-2.2c3-2.4,4.6-2.2,5.9,1.3
    c2.7-0.5,5.3-0.9,8.1-1.4c-1,3.7-7.2,6.5-11,5.6c-1.3-0.3-2.8-0.2-4.1,0.1c-3.2,0.6-6.4,1.1-9.5,2c-2.6,0.8-5.1,2.3-7.7,3.4
    c-2.4,1-5.4,2.3-6.8-0.6c-0.9-1.9-0.9-5.3,0.2-7c4.6-7.1,9.7-13.9,14.8-20.7c6.9-9.4,14-18.8,20.9-28.3c0.7-1,0.9-2.3,1.6-3.2
    c0.7-0.7,1.8-1,2.8-1.5c0.4,1.1,1.4,2.5,1.1,3.3c-0.8,1.9-2.2,3.7-3.5,5.4c-9.8,13-19.8,25.9-29.5,39c-2.4,3.2-4.2,6.9-6.2,10.4
    C71.4,60,72.1,60.6,72.7,61.1z"/>
</g>
</svg>
