<?xml version="1.0" encoding="utf-8"?>
<!-- Generator: Adobe Illustrator 18.0.0, SVG Export Plug-In . SVG Version: 6.00 Build 0)  -->
<!DOCTYPE svg PUBLIC "-//W3C//DTD SVG 1.1//EN" "http://www.w3.org/Graphics/SVG/1.1/DTD/svg11.dtd" [
	<!ENTITY ns_extend "http://ns.adobe.com/Extensibility/1.0/">
	<!ENTITY ns_ai "http://ns.adobe.com/AdobeIllustrator/10.0/">
	<!ENTITY ns_graphs "http://ns.adobe.com/Graphs/1.0/">
	<!ENTITY ns_vars "http://ns.adobe.com/Variables/1.0/">
	<!ENTITY ns_imrep "http://ns.adobe.com/ImageReplacement/1.0/">
	<!ENTITY ns_sfw "http://ns.adobe.com/SaveForWeb/1.0/">
	<!ENTITY ns_custom "http://ns.adobe.com/GenericCustomNamespace/1.0/">
	<!ENTITY ns_adobe_xpath "http://ns.adobe.com/XPath/1.0/">
]>
<svg version="1.1" id="Layer_1" xmlns:x="&ns_extend;" xmlns:i="&ns_ai;" xmlns:graph="&ns_graphs;"
	 xmlns="http://www.w3.org/2000/svg" xmlns:xlink="http://www.w3.org/1999/xlink" x="0px" y="0px" viewBox="0 0 78 70"
	 enable-background="new 0 0 78 70" xml:space="preserve">
<metadata>
	<sfw  xmlns="&ns_sfw;">
		<slices></slices>
		<sliceSourceBounds  height="68.2" width="76.5" x="1" y="-69.2" bottomLeftOrigin="true"></sliceSourceBounds>
	</sfw>
</metadata>
<linearGradient id="SVGID_1_" gradientUnits="userSpaceOnUse" x1="139.5135" y1="194.1159" x2="130.0664" y2="178.7783">
	<stop  offset="0" style="stop-color:#8C1C55"/>
	<stop  offset="1" style="stop-color:#D61A63"/>
</linearGradient>
<path fill="url(#SVGID_1_)" d="M47.9,55.8h-8.6l13.3,13.4h24.8L61.8,53.5C57.7,55,53,55.8,47.9,55.8z"/>
<linearGradient id="SVGID_2_" gradientUnits="userSpaceOnUse" x1="30.1398" y1="24.9638" x2="59.4926" y2="20.1121">
	<stop  offset="0" style="stop-color:#8C1C55"/>
	<stop  offset="1" style="stop-color:#D61A63"/>
</linearGradient>
<path fill="url(#SVGID_2_)" d="M32.2,49.7h9.3c5.6,0,10.6-0.9,15-2.7c8.8-3.7,14.4-11,14.4-21.8C70.8,9.9,59.7,1,42.5,1H10.1
	L26,16.9h15c6.8,0,10.9,3.1,10.9,9c0,5.6-4.1,9.1-10.8,9.1h-9v0l0,0L32.2,49.7z"/>
<linearGradient id="SVGID_3_" gradientUnits="userSpaceOnUse" x1="21.922" y1="77.9269" x2="23.6201" y2="52.4564">
	<stop  offset="0" style="stop-color:#8C1C55"/>
	<stop  offset="1" style="stop-color:#D61A63"/>
</linearGradient>
<polygon fill="url(#SVGID_3_)" points="32.1,49.7 32.1,34.9 13.9,53.1 13.9,69.2 32.2,69.2 32.2,49.7 "/>
<linearGradient id="SVGID_4_" gradientUnits="userSpaceOnUse" x1="32.9876" y1="42.1933" x2="62.3405" y2="37.3416">
	<stop  offset="0" style="stop-color:#8C1C55"/>
	<stop  offset="1" style="stop-color:#D61A63"/>
</linearGradient>
<polygon fill="url(#SVGID_4_)" points="32.2,49.7 32.1,34.9 32.1,34.9 32.1,49.7 "/>
<linearGradient id="SVGID_5_" gradientUnits="userSpaceOnUse" x1="29.7395" y1="78.4481" x2="31.4375" y2="52.9776">
	<stop  offset="0" style="stop-color:#8C1C55"/>
	<stop  offset="1" style="stop-color:#D61A63"/>
</linearGradient>
<polygon fill="url(#SVGID_5_)" points="32.2,49.7 32.1,34.9 32.1,34.9 32.1,49.7 "/>
<linearGradient id="SVGID_6_" gradientUnits="userSpaceOnUse" x1="-216.5621" y1="-437.485" x2="-212.6449" y2="-429.1609">
	<stop  offset="0" style="stop-color:#8C1C55"/>
	<stop  offset="1" style="stop-color:#D61A63"/>
</linearGradient>
<polygon fill="url(#SVGID_6_)" points="1,56.5 8.3,49.3 8.3,8.7 1,1.5 "/>
<linearGradient id="SVGID_7_" gradientUnits="userSpaceOnUse" x1="-134.1598" y1="-280.4663" x2="-131.5603" y2="-274.9424">
	<stop  offset="0" style="stop-color:#8C1C55"/>
	<stop  offset="1" style="stop-color:#D61A63"/>
</linearGradient>
<polygon fill="url(#SVGID_7_)" points="14.4,14.7 10.4,10.8 10.4,47.3 14.4,43.3 "/>
<linearGradient id="SVGID_8_" gradientUnits="userSpaceOnUse" x1="-80.2085" y1="-178.4838" x2="-78.4663" y2="-174.7815">
	<stop  offset="0" style="stop-color:#8C1C55"/>
	<stop  offset="1" style="stop-color:#D61A63"/>
</linearGradient>
<polygon fill="url(#SVGID_8_)" points="16.5,16.8 16.5,41.2 20,37.8 20,20.2 "/>
<linearGradient id="SVGID_9_" gradientUnits="userSpaceOnUse" x1="-31.1579" y1="-85.498" x2="-30.197" y2="-83.4559">
	<stop  offset="0" style="stop-color:#8C1C55"/>
	<stop  offset="1" style="stop-color:#D61A63"/>
</linearGradient>
<polygon fill="url(#SVGID_9_)" points="22.1,22.3 22.1,35.8 24.5,33.4 24.5,24.7 "/>
<linearGradient id="SVGID_10_" gradientUnits="userSpaceOnUse" x1="8.8532" y1="-10.0186" x2="9.1795" y2="-9.3252">
	<stop  offset="0" style="stop-color:#8C1C55"/>
	<stop  offset="1" style="stop-color:#D61A63"/>
</linearGradient>
<polygon fill="url(#SVGID_10_)" points="26.6,31.3 28.9,29 26.6,26.7 "/>
</svg>
