<?xml version="1.0" encoding="utf-8"?>
<!-- Generator: Adobe Illustrator 18.0.0, SVG Export Plug-In . SVG Version: 6.00 Build 0)  -->
<!DOCTYPE svg PUBLIC "-//W3C//DTD SVG 1.1//EN" "http://www.w3.org/Graphics/SVG/1.1/DTD/svg11.dtd" [
	<!ENTITY ns_extend "http://ns.adobe.com/Extensibility/1.0/">
	<!ENTITY ns_ai "http://ns.adobe.com/AdobeIllustrator/10.0/">
	<!ENTITY ns_graphs "http://ns.adobe.com/Graphs/1.0/">
	<!ENTITY ns_vars "http://ns.adobe.com/Variables/1.0/">
	<!ENTITY ns_imrep "http://ns.adobe.com/ImageReplacement/1.0/">
	<!ENTITY ns_sfw "http://ns.adobe.com/SaveForWeb/1.0/">
	<!ENTITY ns_custom "http://ns.adobe.com/GenericCustomNamespace/1.0/">
	<!ENTITY ns_adobe_xpath "http://ns.adobe.com/XPath/1.0/">
]>
<svg version="1.1" id="Layer_1" xmlns:x="&ns_extend;" xmlns:i="&ns_ai;" xmlns:graph="&ns_graphs;"
	 xmlns="http://www.w3.org/2000/svg" xmlns:xlink="http://www.w3.org/1999/xlink" x="0px" y="0px" viewBox="0 0 158 170"
	 enable-background="new 0 0 158 170" xml:space="preserve">
<metadata>
	<sfw  xmlns="&ns_sfw;">
		<slices></slices>
		<sliceSourceBounds  height="167.8" width="155.4" x="1" y="-168.8" bottomLeftOrigin="true"></sliceSourceBounds>
	</sfw>
</metadata>
<linearGradient id="SVGID_1_" gradientUnits="userSpaceOnUse" x1="205.3528" y1="236.7875" x2="193.8182" y2="218.0607">
	<stop  offset="0" style="stop-color:#8C1C55"/>
	<stop  offset="1" style="stop-color:#D61A63"/>
</linearGradient>
<path fill="url(#SVGID_1_)" d="M93.5,67.9H83l16.3,16.4h30.3L110.4,65C105.5,66.9,99.7,67.9,93.5,67.9z"/>
<linearGradient id="SVGID_2_" gradientUnits="userSpaceOnUse" x1="71.8114" y1="30.2589" x2="107.6502" y2="24.3352">
	<stop  offset="0" style="stop-color:#8C1C55"/>
	<stop  offset="1" style="stop-color:#D61A63"/>
</linearGradient>
<path fill="url(#SVGID_2_)" d="M74.3,60.5h11.4c6.8,0,13-1.1,18.3-3.3c10.7-4.5,17.6-13.5,17.6-26.7C121.5,11.8,107.9,1,86.9,1H47.4
	l19.4,19.4h18.3c8.3,0,13.3,3.8,13.3,11c0,6.8-5,11.1-13.2,11.1h-11v0l0,0L74.3,60.5z"/>
<linearGradient id="SVGID_3_" gradientUnits="userSpaceOnUse" x1="61.7778" y1="94.9249" x2="63.8511" y2="63.8264">
	<stop  offset="0" style="stop-color:#8C1C55"/>
	<stop  offset="1" style="stop-color:#D61A63"/>
</linearGradient>
<polygon fill="url(#SVGID_3_)" points="74.3,60.5 74.3,42.4 52,64.6 52,84.2 74.3,84.2 74.3,60.5 "/>
<linearGradient id="SVGID_4_" gradientUnits="userSpaceOnUse" x1="75.2885" y1="51.2955" x2="111.1273" y2="45.3717">
	<stop  offset="0" style="stop-color:#8C1C55"/>
	<stop  offset="1" style="stop-color:#D61A63"/>
</linearGradient>
<polygon fill="url(#SVGID_4_)" points="74.3,60.5 74.3,42.4 74.3,42.4 74.3,60.5 "/>
<linearGradient id="SVGID_5_" gradientUnits="userSpaceOnUse" x1="71.3226" y1="95.5613" x2="73.3959" y2="64.4627">
	<stop  offset="0" style="stop-color:#8C1C55"/>
	<stop  offset="1" style="stop-color:#D61A63"/>
</linearGradient>
<polygon fill="url(#SVGID_5_)" points="74.3,60.5 74.3,42.4 74.3,42.4 74.3,60.5 "/>
<linearGradient id="SVGID_6_" gradientUnits="userSpaceOnUse" x1="-229.4026" y1="-534.3741" x2="-224.6198" y2="-524.2108">
	<stop  offset="0" style="stop-color:#8C1C55"/>
	<stop  offset="1" style="stop-color:#D61A63"/>
</linearGradient>
<polygon fill="url(#SVGID_6_)" points="36.2,68.8 45.2,60 45.2,10.4 36.2,1.6 "/>
<linearGradient id="SVGID_7_" gradientUnits="userSpaceOnUse" x1="-128.7924" y1="-342.66" x2="-125.6185" y2="-335.9155">
	<stop  offset="0" style="stop-color:#8C1C55"/>
	<stop  offset="1" style="stop-color:#D61A63"/>
</linearGradient>
<polygon fill="url(#SVGID_7_)" points="52.6,17.8 47.7,12.9 47.7,57.5 52.6,52.6 "/>
<linearGradient id="SVGID_8_" gradientUnits="userSpaceOnUse" x1="-62.9198" y1="-218.1431" x2="-60.7926" y2="-213.6228">
	<stop  offset="0" style="stop-color:#8C1C55"/>
	<stop  offset="1" style="stop-color:#D61A63"/>
</linearGradient>
<polygon fill="url(#SVGID_8_)" points="55.2,20.3 55.2,50.1 59.4,46 59.4,24.5 "/>
<linearGradient id="SVGID_9_" gradientUnits="userSpaceOnUse" x1="-3.0309" y1="-104.6109" x2="-1.8576" y2="-102.1176">
	<stop  offset="0" style="stop-color:#8C1C55"/>
	<stop  offset="1" style="stop-color:#D61A63"/>
</linearGradient>
<polygon fill="url(#SVGID_9_)" points="62,27 62,43.4 64.9,40.5 64.9,29.9 "/>
<linearGradient id="SVGID_10_" gradientUnits="userSpaceOnUse" x1="45.8213" y1="-12.4533" x2="46.2197" y2="-11.6067">
	<stop  offset="0" style="stop-color:#8C1C55"/>
	<stop  offset="1" style="stop-color:#D61A63"/>
</linearGradient>
<polygon fill="url(#SVGID_10_)" points="67.5,38 70.3,35.2 67.5,32.4 "/>
<path fill="#FFFFFF" d="M138.7,111c-10.3,0-17.9,7.8-17.9,17.3c0,9.6,7.4,17.3,17.8,17.3c10.4,0,17.9-7.8,17.9-17.3
	C156.4,118.7,149,111,138.7,111z M138.7,138.9c-5.9,0-10.2-4.8-10.2-10.5c0-5.8,4.1-10.5,10.1-10.5c5.9,0,10.2,4.8,10.2,10.5
	C148.7,134.2,144.6,138.9,138.7,138.9z"/>
<g>
	<path fill="#FFFFFF" d="M14.8,111.6H1v33.7h7.4v-10.1H14c7.6,0,13.6-4,13.6-11.8C27.7,116.4,22.8,111.6,14.8,111.6z M14.3,128.6
		H8.4v-10.3h5.7c3.7,0,6,1.8,6,5.1C20.2,126.4,18,128.6,14.3,128.6z"/>
	<path fill="#FFFFFF" d="M53.6,133.3c4.3-1.6,7.2-5,7.2-10.4c0-3.3-1-5.9-2.9-7.8c-2.2-2.2-5.5-3.4-9.8-3.4H32.7v33.7h7.4v-10.8h5.7
		l7.3,10.8h8.7L53.6,133.3z M47.7,128h-7.5v-9.7h7.4c3.6,0,5.8,1.6,5.8,4.8C53.4,126,51.3,128,47.7,128z"/>
	<polygon fill="#FFFFFF" points="107.8,145.3 115.2,145.3 115.2,111.6 107.2,111.6 98.3,125.8 89.4,111.6 81.4,111.6 81.4,145.3 
		88.7,145.3 88.7,123.4 98.1,137.7 98.3,137.7 107.8,123.3 	"/>
	<path fill="#FFFFFF" d="M73.2,112.5c-2,0.9-4,1.8-6.1,2.6c-0.1,0-0.2,0.1-0.3,0.1v30h7.4V112C74,112.2,73.6,112.3,73.2,112.5z"/>
	<linearGradient id="SVGID_11_" gradientUnits="userSpaceOnUse" x1="66.0316" y1="109.0599" x2="72.7326" y2="102.0346">
		<stop  offset="0" style="stop-color:#8C1C55"/>
		<stop  offset="1" style="stop-color:#D61A63"/>
	</linearGradient>
	<path fill="url(#SVGID_11_)" d="M72.2,98.9c-1.7,1.3-3.5,2.5-5.3,3.7v6.5c0,0,0,0,0,0c0.1,0,0.2-0.1,0.3-0.1
		c2.1-0.8,4.1-1.7,6.1-2.6c0.4-0.2,0.7-0.3,1.1-0.5c0,0,0,0,0,0c0,0,0,0,0,0c0-1,0-6.1,0-8.7C73.6,97.8,72.9,98.4,72.2,98.9z"/>
</g>
<g>
	<path fill="#FFFFFF" d="M3.5,167.1V155H1.9v13.5h9.1v-1.4H3.5z"/>
	<path fill="#FFFFFF" d="M37.1,155v13.5h1.5V155H37.1z"/>
	<path fill="#FFFFFF" d="M71.9,161.3v1.4H76v3.4c-0.9,0.8-2.3,1.3-3.9,1.3c-3.3,0-5.3-2.4-5.3-5.6c0-3,2.1-5.6,5.1-5.6
		c1.9,0,3.1,0.6,4.1,1.5l1-1.2c-1.4-1.1-2.8-1.8-5-1.8c-4,0-6.8,3.3-6.8,7c0,3.9,2.6,7,6.9,7c2.3,0,4.2-0.9,5.4-2.1v-5.4H71.9z"/>
	<path fill="#FFFFFF" d="M113.3,155v6h-7.8v-6H104v13.5h1.5v-6.1h7.8v6.1h1.5V155H113.3z"/>
	<path fill="#FFFFFF" d="M140.8,155v1.4h4.5v12.1h1.6v-12.1h4.5V155H140.8z"/>
</g>
</svg>
