<!-- Generator: Adobe Illustrator 18.0.0, SVG Export Plug-In  -->
<svg version="1.1"
   xmlns="http://www.w3.org/2000/svg" xmlns:xlink="http://www.w3.org/1999/xlink" xmlns:a="http://ns.adobe.com/AdobeSVGViewerExtensions/3.0/"
   x="0px" y="0px" width="162.9px" height="97.8px" viewBox="0 0 162.9 97.8" enable-background="new 0 0 162.9 97.8"
   xml:space="preserve">
<defs>
</defs>
<path fill="#757575" d="M11.2,96.3c-0.3,0.4-0.8,0.5-1.5,0.5H7.2v-2.6h2.3c0.5,0,0.9,0,1.2,0.1c0.6,0.2,0.9,0.6,0.9,1.1
  C11.5,95.8,11.4,96.1,11.2,96.3L11.2,96.3z M7.2,91.3h2.1c0.5,0,0.9,0,1.1,0.1c0.5,0.2,0.7,0.5,0.7,1c0,0.5-0.2,0.8-0.7,1
  c-0.3,0.1-0.7,0.2-1.1,0.2H7.1L7.2,91.3L7.2,91.3z M11.8,94.4c-0.2-0.1-0.5-0.3-0.9-0.4l-0.3-0.1l0.3-0.1c0.3-0.1,0.5-0.2,0.6-0.4
  c0.3-0.3,0.4-0.6,0.4-1c0-0.3-0.1-0.6-0.3-0.9c-0.4-0.4-1-0.7-1.9-0.7H6.3v6.5h3.3c1,0,1.8-0.3,2.2-0.8c0.3-0.3,0.5-0.7,0.5-1.1
  C12.3,95,12.2,94.6,11.8,94.4L11.8,94.4z M23.9,96.1c-0.4,0.6-1.2,0.9-2.2,0.9c-1.1,0-1.8-0.3-2.3-0.8c-0.5-0.5-0.7-1.2-0.7-2
  c0-1,0.3-1.7,0.8-2.2c0.5-0.5,1.3-0.8,2.1-0.8c0.9,0,1.6,0.3,2.1,0.8c0.5,0.5,0.8,1.2,0.8,2C24.6,94.8,24.4,95.4,23.9,96.1
  L23.9,96.1z M24.7,91.8c-0.7-0.7-1.7-1.1-3-1.1c-1.3,0-2.3,0.4-3,1.2c-0.5,0.6-0.8,1.4-0.8,2.3c0,1,0.3,1.8,0.9,2.4
  c0.7,0.7,1.6,1,2.8,1c1.3,0,2.3-0.4,3-1.1c0.6-0.7,0.9-1.5,0.9-2.4C25.5,93.1,25.2,92.3,24.7,91.8L24.7,91.8z M37.6,94.5v-3.7h-0.9
  v4.1c0,0.5-0.1,0.9-0.3,1.2c-0.4,0.6-1,0.9-2,0.9c-0.8,0-1.4-0.3-1.8-0.8c-0.2-0.3-0.4-0.8-0.4-1.3v-4.1h-0.9v3.7
  c0,0.8,0.1,1.4,0.4,1.8c0.5,0.8,1.4,1.2,2.7,1.2c1.3,0,2.2-0.4,2.7-1.2C37.5,95.9,37.6,95.3,37.6,94.5L37.6,94.5z M49.6,90.8h-6.3
  v0.6h2.7v5.9h0.9v-5.9h2.7L49.6,90.8L49.6,90.8z M55.6,97.3h0.9v-6.5h-0.9V97.3z M68.3,96.3L68.3,96.3l-1.1-0.6L66.8,96l0.9,0.6
  l-0.2,0.1c-0.1,0.1-0.3,0.1-0.5,0.2c-0.2,0-0.4,0-0.7,0c-1,0-1.7-0.3-2.2-0.8c-0.5-0.5-0.8-1.2-0.8-2c0-1,0.3-1.7,0.8-2.2
  c0.5-0.5,1.2-0.7,2.1-0.7c0.9,0,1.6,0.3,2.1,0.8c0.5,0.5,0.8,1.2,0.8,2c0,0.4-0.1,0.8-0.2,1.2S68.7,95.9,68.3,96.3L68.3,96.3z
   M68.8,96.7l0.1-0.1c0.4-0.4,0.8-0.8,0.9-1.4c0.1-0.4,0.2-0.8,0.2-1.2c0-0.9-0.3-1.6-0.8-2.2c-0.7-0.7-1.7-1.1-3-1.1
  c-1.3,0-2.3,0.4-3,1.2c-0.5,0.6-0.8,1.4-0.8,2.3c0,1,0.3,1.8,0.9,2.4c0.7,0.7,1.6,1,2.8,1c0.4,0,0.8,0,1.1-0.1
  c0.3-0.1,0.7-0.2,0.9-0.3l0.1,0l1.2,0.8l0.4-0.4L68.8,96.7z M82.3,94.5v-3.7h-0.9v4.1c0,0.5-0.1,0.9-0.3,1.2c-0.4,0.6-1,0.9-2,0.9
  c-0.8,0-1.4-0.3-1.7-0.8c-0.2-0.3-0.4-0.8-0.4-1.3v-4.1h-0.9v3.7c0,0.8,0.1,1.4,0.4,1.8c0.5,0.8,1.3,1.2,2.7,1.2
  c1.3,0,2.2-0.4,2.7-1.2C82.1,95.9,82.3,95.3,82.3,94.5L82.3,94.5z M93.9,94.2v-0.5h-4.4v-2.3h4.8v-0.6h-5.6v6.5h5.7v-0.5h-4.9v-2.5
  L93.9,94.2L93.9,94.2z M114.2,97.3v-6.5h-0.9v2.8H109v-2.8h-0.9v6.5h0.9v-3.2h4.4v3.2H114.2z M126.3,96.1c-0.4,0.6-1.2,0.9-2.2,0.9
  c-1.1,0-1.8-0.3-2.3-0.8c-0.5-0.5-0.7-1.2-0.7-2c0-1,0.3-1.7,0.8-2.2c0.5-0.5,1.3-0.8,2.1-0.8c0.9,0,1.6,0.3,2.1,0.8
  c0.5,0.5,0.8,1.2,0.8,2C127,94.8,126.8,95.4,126.3,96.1L126.3,96.1z M127.1,91.8c-0.7-0.7-1.7-1.1-3.1-1.1c-1.3,0-2.3,0.4-3,1.2
  c-0.5,0.6-0.8,1.4-0.8,2.3c0,1,0.3,1.8,0.9,2.4c0.7,0.7,1.6,1,2.8,1c1.3,0,2.3-0.4,3-1.1c0.6-0.7,0.9-1.5,0.9-2.4
  C127.9,93.1,127.6,92.3,127.1,91.8L127.1,91.8z M139.4,90.8h-6.3v0.6h2.7v5.9h0.9v-5.9h2.7L139.4,90.8L139.4,90.8z M150.5,94.2v-0.5
  h-4.4v-2.3h4.8v-0.6h-5.6v6.5h5.7v-0.5h-4.9v-2.5L150.5,94.2L150.5,94.2z M157.1,90.8v6.5h4.9v-0.5h-4v-5.9H157.1z M58,53.8
  c0.1-0.1,0.2,0,0.2,0c0,0.1,0,0.1-0.1,0.2c-0.1,0-0.3,0.4-0.7,0.9c-0.4,0.5-0.8,1.2-1.4,2c-0.5,0.8-1.2,1.5-1.8,2.3
  c-0.7,0.8-1.3,1.4-1.8,1.8c-0.8,0.7-1.6,1-2.5,1.1c-0.9,0.1-1.7,0-2.3-0.4c-0.8-0.3-1.2-0.9-1.2-1.6c-0.1-0.4-0.1-0.7-0.1-0.9
  c0.1-0.3,0.1-0.6,0.3-1c-0.5,0.7-1.1,1.4-1.9,2.2c-0.8,0.8-2,1.5-3.6,1.9c-0.6,0.1-1.3,0.2-1.8,0.2c-0.6,0-1.2-0.1-1.7-0.3
  c-0.9-0.3-1.6-0.8-2.1-1.5C35,60,34.8,59.2,35,58.3s0.4-1.6,0.8-2.4c0.8-1.7,1.9-3.2,3.2-4.5c1.3-1.2,2.8-2.1,4.6-2.9
  c0.7-0.3,1.3-0.5,2.1-0.7s1.4-0.1,2.1,0c0.6,0.1,1,0.3,1.3,0.6c0.3,0.3,0.5,0.8,0.3,1.2c0,0.4-0.1,0.7-0.2,1
  c-0.1,0.3-0.3,0.6-0.5,0.9c-0.5,0.9-1.2,1.8-2.1,2.7c-0.1,0.1-0.2,0.1-0.3,0c-0.1-0.1,0-0.1,0.1-0.3l0.1-0.1
  c0.4-0.4,0.6-0.7,0.7-0.9c0.1-0.2,0.3-0.5,0.4-1c0.3-0.7-0.1-1.1-1.1-1.1c-0.6,0-1.3,0.1-2.3,0.3c-0.9,0.2-1.8,0.5-2.6,1
  c-0.4,0.2-0.8,0.5-1.3,0.8c-0.4,0.3-0.8,0.6-1.2,0.9c-0.4,0.3-0.7,0.6-1,1c-0.3,0.4-0.6,0.8-0.9,1.3c-0.4,0.5-0.6,1.3-0.7,2.2
  c-0.1,0.9-0.1,1.6,0.2,2.1c0.5,0.8,1.1,1.3,1.8,1.4c1.2,0.1,2.2,0,3.1-0.3c0.9-0.3,1.6-0.7,2.3-1.1c0.6-0.5,1.2-1,1.7-1.6
  c0.5-0.6,0.9-1.2,1.3-1.8c0.2-0.4,0.5-0.6,0.9-0.8c0.4-0.2,0.7-0.3,1-0.3c0.3,0,0.5,0.1,0.6,0.2c0.1,0.1,0.1,0.4-0.2,0.7
  c-0.1,0.1-0.2,0.3-0.4,0.5c-0.2,0.4-0.4,0.8-0.6,1.2c-0.2,0.4-0.2,0.9-0.1,1.3c0.1,0.4,0.2,0.6,0.4,0.9c0,0.1,0.1,0.1,0.2,0.2
  c0.1,0.1,0.3,0.2,0.5,0.4c0.4,0.2,0.8,0.2,1.4,0c0.5-0.2,0.9-0.3,1.1-0.4c0.8-0.5,1.5-1.1,2.2-1.9c0.7-0.8,1.3-1.6,1.9-2.3
  c0.6-0.8,1-1.4,1.4-2C57.6,54.1,57.9,53.8,58,53.8L58,53.8z M60.1,60.9c-1.3,0.8-2.2,1.2-2.9,1.2c-0.6,0-1-0.2-1-0.7
  c0-0.5,0.1-1.1,0.4-1.7c0.3-0.7,0.6-1.4,0.9-2.1c0.3-0.8,0.5-1.4,0.6-2c0.1-1.1,0.2-1.8,0.1-2.3c0-0.5-0.2-1.2-0.5-2.2
  c-0.1-0.4,0-0.7,0.4-1.2c0.4-0.4,0.8-0.8,1.3-1.1c0.5-0.3,1-0.5,1.4-0.6c0.4-0.1,0.7,0,0.8,0.4c0.2,0.5,0.3,0.9,0.2,1.4
  c0,0.5-0.1,0.9-0.1,1.4c-0.1,0.6-0.2,0.9-0.2,1.1c0,0.1-0.1,0.5-0.3,1.1c-0.1,0.5-0.3,1.1-0.7,1.8c-0.3,0.7-0.6,1.4-0.8,2
  c-0.2,0.7-0.4,1.2-0.4,1.7c-0.1,0.5,0.1,0.8,0.4,0.9C60.1,60,61.4,60,60.1,60.9L60.1,60.9z M96.9,33.6c0.4,0.3,0.5,0.6,0.4,1
  c-0.1,0.4-0.4,0.5-0.9,0.2c-1.5-0.8-2.9-1.1-4.3-0.9c-1.4,0.1-2.8,0.5-4,1c-1.2,0.5-2.3,1.1-3.2,1.8c-0.9,0.7-1.6,1.2-2,1.5
  c-0.4,0.3-1.2,1.1-2.3,2.3c-1.2,1.2-2.4,2.6-3.7,4c-1.3,1.4-2.6,2.8-3.7,4s-1.9,2.1-2.2,2.4c-0.7,0.7-1.6,1.7-2.8,2.9
  s-2.4,2.5-3.8,3.7c-1.3,1.2-2.6,2.3-3.7,3.2c-1.2,0.9-2.1,1.4-2.8,1.4c-0.6,0-1-0.2-1.1-0.6c-0.1-0.5,4.3-2,5.2-2.7
  c0.9-0.7,1.9-1.6,3-2.6c1.1-1,2.2-2.1,3.2-3.2c1.1-1.1,1.9-2,2.6-2.7c0.3-0.4,1.1-1.2,2.2-2.5c1.2-1.3,2.4-2.6,3.8-4
  c1.3-1.4,2.6-2.8,3.8-3.9c1.2-1.2,1.9-2,2.3-2.3c0.4-0.3,1.1-0.9,2.1-1.7c1-0.8,2.2-1.5,3.5-2.1s2.8-1.1,4.2-1.3
  C94.1,32.4,95.6,32.7,96.9,33.6L96.9,33.6z M94.8,53.8c0.1-0.1,0.2,0,0.2,0c0,0.1,0,0.1-0.1,0.2c-0.1,0-0.3,0.4-0.7,0.9
  c-0.4,0.5-0.8,1.2-1.4,2c-0.5,0.8-1.2,1.5-1.8,2.3c-0.7,0.8-1.3,1.4-1.8,1.8c-0.8,0.7-1.6,1-2.5,1.1c-0.9,0.1-1.7,0-2.3-0.4
  c-0.8-0.3-1.2-0.9-1.2-1.6c-0.1-0.4-0.1-0.7-0.1-0.9c0.1-0.3,0.1-0.6,0.3-1c-0.5,0.7-1.1,1.4-1.9,2.2c-0.8,0.8-2,1.5-3.6,1.9
  c-0.7,0.1-1.3,0.2-1.8,0.2c-0.6,0-1.2-0.1-1.8-0.3c-0.9-0.3-1.6-0.8-2.1-1.5c-0.4-0.8-0.5-1.6-0.4-2.4c0.1-0.8,0.4-1.6,0.8-2.4
  c0.8-1.7,1.9-3.2,3.2-4.5c1.3-1.2,2.8-2.1,4.6-2.9c0.6-0.3,1.3-0.5,2.1-0.7c0.7-0.1,1.4-0.1,2.1,0c0.6,0.1,1,0.3,1.3,0.6
  c0.4,0.3,0.5,0.8,0.4,1.2c0,0.4-0.1,0.7-0.2,1c-0.1,0.3-0.3,0.6-0.5,0.9c-0.5,0.9-1.2,1.8-2.1,2.7c-0.1,0.1-0.2,0.1-0.3,0
  c-0.1-0.1,0-0.1,0.1-0.3l0.1-0.1c0.4-0.4,0.6-0.7,0.7-0.9c0.1-0.2,0.3-0.5,0.4-1c0.3-0.7-0.1-1.1-1.1-1.1c-0.6,0-1.3,0.1-2.3,0.3
  c-0.9,0.2-1.8,0.5-2.6,1c-0.4,0.2-0.8,0.5-1.3,0.8c-0.4,0.3-0.8,0.6-1.2,0.9c-0.4,0.3-0.7,0.6-1,1c-0.3,0.4-0.6,0.8-0.9,1.3
  c-0.4,0.5-0.6,1.3-0.7,2.2c-0.1,0.9-0.1,1.6,0.2,2.1c0.5,0.8,1.1,1.3,1.8,1.4c1.2,0.1,2.2,0,3.1-0.3c0.9-0.3,1.6-0.7,2.3-1.1
  c0.6-0.5,1.2-1,1.7-1.6c0.5-0.6,0.9-1.2,1.3-1.8c0.2-0.4,0.5-0.6,0.9-0.8c0.4-0.2,0.7-0.3,1-0.3c0.3,0,0.5,0.1,0.6,0.2
  c0.1,0.1,0.1,0.4-0.2,0.7c-0.1,0.1-0.2,0.3-0.4,0.5c-0.2,0.4-0.4,0.8-0.6,1.2c-0.2,0.4-0.2,0.9-0.1,1.3c0.1,0.4,0.2,0.6,0.4,0.9
  c0,0.1,0.1,0.1,0.2,0.2c0.1,0.1,0.3,0.2,0.5,0.4c0.4,0.2,0.8,0.2,1.3,0c0.5-0.2,0.9-0.3,1.1-0.4c0.8-0.5,1.5-1.1,2.2-1.9
  c0.7-0.8,1.3-1.6,1.9-2.3s1-1.4,1.4-2C94.5,54.1,94.7,53.8,94.8,53.8L94.8,53.8z M120.1,34.2c0.4-1,0.4-1.6,0.1-1.8
  c-0.3-0.2-0.9,0-1.7,0.7c-0.8,0.7-1.6,1.7-2.5,2.9c-0.8,1.2-1.4,2.2-1.8,3.2c-0.3,1-0.4,1.6-0.1,1.8c0.3,0.2,0.9,0,1.7-0.7
  c0.8-0.7,1.6-1.7,2.4-2.9C119.1,36.3,119.7,35.2,120.1,34.2L120.1,34.2z M109.3,50.2c-0.6,0.3-1.2,0.7-2,1.2
  c-0.8,0.5-1.6,1.1-2.3,1.8c-0.7,0.7-1.1,1-1.2,1.1c-0.1,0.2-0.3,0.2-0.4,0c-0.1-0.1-0.1-0.3,0.2-0.4c0.2-0.1,0.6-0.4,1.2-1
  c0.6-0.6,1.4-1.2,2.4-1.9c0.9-0.7,2-1.3,3.1-1.8c1.1-0.5,2.2-0.8,3.3-0.8c0.8,0,1.2,0.3,1.1,0.8c-0.1,0.5-0.4,1.2-1.1,2.1
  c-0.6,0.8-1.3,1.8-2.2,2.8c-0.9,1-1.7,1.9-2.4,2.9c-0.7,0.9-1.3,1.7-1.7,2.3c-0.4,0.7-0.4,1.1,0,1.2c0.9,0.4,2.2,0.4,3.9-0.2
  c1.7-0.5,3.4-1.2,5.1-2.1c1.7-0.8,3.2-1.7,4.5-2.5c1.3-0.8,2-1.4,2.2-1.6c0.2-0.2,0.3-0.3,0.4-0.2c0.1,0.1,0.1,0.2,0,0.4
  c-1.2,1.1-2.6,2.1-4.4,3c-1.8,1-3.6,1.8-5.4,2.5c-1.8,0.7-3.6,1.3-5.3,1.7c-1.7,0.4-2.9,0.6-3.8,0.4c-0.5-0.1-0.7-0.3-0.8-0.6
  c-0.1-0.4-0.1-0.8,0.1-1.3c0.1-0.5,0.4-1.1,0.7-1.8c0.4-0.7,0.8-1.3,1.2-2c1.1-1.6,2.4-3.4,3.9-5.4C110,50.1,109.9,49.9,109.3,50.2
  L109.3,50.2z M140.9,53.9c0.1-0.1,0.2-0.1,0.3,0s0,0.1-0.1,0.2c-0.1,0.1-0.2,0.2-0.6,0.4c-0.3,0.2-0.7,0.5-1,0.8
  c-0.4,0.3-0.7,0.6-1,0.8c-0.3,0.2-0.5,0.4-0.5,0.4l-1.1,0.8c-0.5,0.3-0.9,0.6-1.3,0.9c-0.4,0.3-0.8,0.6-1.3,0.9
  c-0.9,0.6-1.9,1.1-2.9,1.7c-1,0.5-2,1-3.1,1.3c-0.8,0.3-1.8,0.5-2.9,0.5c-1.1,0.1-2-0.1-2.6-0.5c-0.6-0.4-1-1.1-1.1-1.9
  c0-0.5,0-1,0-1.5c0.1-0.6,0.2-1.1,0.3-1.5c0.3-1.2,0.9-2.3,1.6-3.5c0.7-1.2,1.4-2.2,2.1-3.1c0.4-0.4,0.8-0.8,1.2-1.1
  c0.4-0.3,0.8-0.6,1.3-0.8c0.6-0.4,1.3-0.6,2-0.8c0.8-0.1,1.5-0.1,2.1,0c0.7,0.1,1.2,0.4,1.7,0.8c0.5,0.4,0.7,1.1,0.8,1.8
  c0,0.4-0.1,0.9-0.4,1.3c-0.3,0.5-0.7,1-1.1,1.4c-0.5,0.4-0.9,0.8-1.4,1.2c-0.6,0.4-1.2,0.8-1.8,1.1c-0.6,0.3-1.2,0.6-1.9,0.9
  c-0.6,0.3-1.3,0.6-2.1,0.8c-0.8,0.3-1.5,0.5-2.1,0.8c-0.1,0-0.2,0-0.2-0.1c0-0.1,0-0.2,0.1-0.2c0.9-0.3,1.9-0.7,3.1-1.1
  c1.2-0.4,2.2-0.8,3.1-1.3c0.6-0.3,1.2-0.6,1.7-1c0.5-0.4,1.1-0.8,1.5-1.3c0.2-0.3,0.3-0.5,0.5-0.7c0.1-0.2,0.3-0.4,0.4-0.7
  c0.2-0.5,0.2-0.9,0-1.2c-0.1-0.3-0.3-0.5-0.6-0.5c-0.3,0-0.6,0-1,0c-1.1,0.2-2,0.5-2.8,1.1c-0.9,0.5-1.8,1.3-2.7,2.3
  c-0.5,0.5-0.9,0.9-1.3,1.4c-0.4,0.5-0.7,1.1-1.1,1.6c-0.5,0.8-0.9,1.7-1.1,2.7c-0.3,1-0.1,1.8,0.4,2.4c0.5,0.5,1.1,0.7,1.7,0.7
  c0.7,0,1.6-0.1,2.5-0.4c1-0.3,2-0.8,3-1.3s2-1.1,2.9-1.7c0.5-0.3,0.9-0.6,1.3-0.9c0.4-0.3,0.8-0.6,1.3-0.9l1.1-0.8
  c0.1-0.1,0.3-0.2,0.6-0.4c0.3-0.2,0.7-0.5,1-0.7c0.4-0.3,0.7-0.5,1-0.7C140.7,54.1,140.9,53.9,140.9,53.9L140.9,53.9z M162.6,53.7
  c0.1-0.1,0.2-0.1,0.2,0c0,0.1,0,0.1-0.1,0.2c-0.7,0.7-1.4,1.2-2.2,1.8c-0.8,0.6-1.6,1.1-2.4,1.5c-0.8,0.4-1.6,0.7-2.5,0.9
  c-0.8,0.2-1.6,0.2-2.3,0c-0.8-0.2-1.4-0.6-1.8-1.3c-0.4-0.7-0.7-1.4-0.8-2.2c-0.1-0.5,0-1.1,0.1-1.7c0.1-0.7,0.3-1.3,0.5-1.8
  c0.2-0.6,0.3-1.1,0.4-1.4c0.1-0.4,0-0.5-0.2-0.4c-0.2,0.1-0.6,0.2-1.2,0.4c-0.6,0.2-1.3,0.4-1.9,0.5c-0.7,0.2-1.3,0.3-1.8,0.5
  c-0.5,0.1-0.9,0.2-0.9,0.2c-0.2,0.9-0.5,1.8-0.9,2.7c-0.4,0.9-0.9,1.8-1.5,2.7c-0.7,1-1.3,2-2.1,3.1c-0.7,1.1-1.4,2.1-2.1,3.1
  c-0.3,0.4-0.7,0.8-1.1,1.1c-0.4,0.3-0.8,0.5-1.2,0.6c-0.4,0.1-0.6,0.1-0.8,0c-0.1-0.1-0.1-0.4,0.2-0.9c0.8-1.3,1.6-2.6,2.2-3.8
  c0.7-1.3,1.3-2.5,1.9-3.8c0.3-0.7,0.6-1.3,0.9-2c0.3-0.7,0.5-1.3,0.6-2c-0.5,0-0.9-0.1-1.3-0.4c-0.4-0.3-0.6-0.7-0.7-1.2
  c-0.1-0.7,0.3-1.3,1.1-1.7c0.4-0.2,0.8-0.3,1.3-0.3c0.5,0,1,0,1.4,0.2c0.4,0.2,0.8,0.4,1.2,0.8c0.4,0.4,0.5,0.8,0.6,1.4
  c1.2-0.2,2.2-0.5,3.2-1c1-0.4,1.9-0.8,2.7-1.2c0.8-0.4,1.5-0.7,2.1-0.8c0.6-0.2,1.1-0.1,1.5,0.1c0.4,0.3,0.5,0.6,0.4,1.1
  c-0.1,0.4-0.4,0.9-0.7,1.4c-0.4,0.5-0.7,1.1-1.1,1.7s-0.6,1.2-0.7,1.7c-0.2,0.9-0.2,1.7,0,2.6c0.2,0.9,0.7,1.4,1.6,1.6
  c1.3,0.3,2.7,0,4.1-0.9C160,55.6,161.4,54.7,162.6,53.7L162.6,53.7z M116,12.8c0.4,0.3,0.6,0.7,0.7,1.1c0.1,0.4,0.2,0.8,0.2,1.2
  c0,0.7-0.2,1.4-0.4,2.1c-0.2,0.7-0.4,1.4-0.7,2c-0.3,0.9-0.7,1.7-1.1,2.5s-0.7,1.6-1.1,2.5c-0.8,1.5-1.5,2.9-2.3,4.3
  c-0.8,1.4-1.6,2.9-2.4,4.3c-0.4,0.7-0.8,1.3-1.2,1.9c-0.4,0.6-0.8,1.3-1.1,1.9c-0.7,1.2-1.5,2.5-2.2,3.7c-0.7,1.2-1.4,2.5-2.1,3.8
  c-1.8,3.2-3.5,6.5-5.1,9.9c-0.7,1.6-1.4,3.2-2,4.8c-0.6,1.6-1.1,3.3-1.6,4.9c-0.1,0.7-0.3,1.3-0.3,1.9c-0.1,0.7-0.1,1.3-0.1,1.9
  c0,0.5,0,1,0.1,1.5c0.1,0.5,0.3,0.9,0.6,1.3c0.7,1,1.5,1.5,2.5,1.5c1,0,2-0.2,3.1-0.5c0.1,0,0.1,0,0.2,0s0,0.1-0.1,0.1
  c-1.1,0.4-2.2,0.6-3.4,0.7c-1.2,0.1-2.2-0.3-3-1.1c-0.4-0.4-0.6-0.8-0.8-1.2c-0.1-0.4-0.3-0.9-0.4-1.3c-0.1-1.2-0.1-2.4,0.1-3.7
  c0.2-1.6,0.6-3.2,1.1-4.8c0.5-1.6,1.1-3.2,1.7-4.7c0.7-1.7,1.4-3.5,2.2-5.2c0.8-1.7,1.6-3.4,2.4-5c0.7-1.3,1.4-2.7,2.1-4.1
  c0.7-1.4,1.4-2.7,2.1-4.1c0.4-0.7,0.7-1.3,1.1-2c0.3-0.7,0.7-1.3,1.1-2c0.7-1.3,1.4-2.7,2.1-4.1c0.7-1.4,1.4-2.7,2-4.1
  c0.4-0.8,0.7-1.7,1.1-2.5c0.4-0.8,0.7-1.7,1-2.6c0.3-0.7,0.5-1.5,0.7-2.2c0.2-0.7,0.4-1.5,0.4-2.2c0.1-0.4,0.1-0.9,0.1-1.4
  c0-0.5-0.3-0.9-0.6-1.2c-0.4-0.4-0.9-0.5-1.6-0.3c-0.6,0.1-1.2,0.3-1.6,0.5c-0.1,0-0.1,0-0.2,0c0-0.1,0-0.1,0.1-0.2
  c0.2-0.1,0.6-0.2,1.1-0.4c0.5-0.2,1.1-0.3,1.7-0.4c0.6-0.1,1.2-0.1,1.8,0C114.9,12,115.5,12.3,116,12.8L116,12.8z M31.7,11.7
  c0.1,2.2-0.2,4.3-0.8,6.5c-0.6,2.1-1.3,4.2-2.2,6.2c-0.4,1-0.9,2-1.4,3c-0.5,1-1,2-1.5,3c-0.3,0.6-0.9,1.7-1.8,3.3
  c-0.9,1.6-1.8,3.3-2.8,5.1c-1,1.8-2,3.5-2.8,5.1c-0.9,1.6-1.5,2.7-1.7,3.3c-0.9,2-1.9,3.9-2.9,5.9c-1,2-1.8,4-2.6,6.1
  c-0.7,2-1.1,4-1.4,6.2c-0.3,2.2,0.1,4.3,1.1,6.2c0.1,0.3,0,0.5-0.3,0.6c-0.3,0.1-0.5,0-0.6-0.3c-1.4-2.5-1.9-5-1.6-7.5
  c0.3-2.1,0.8-4.2,1.5-6.2s1.5-3.9,2.4-5.9c0.5-1.1,1.3-2.7,2.3-4.6s2.1-4.1,3.2-6.3c1.1-2.2,2.2-4.4,3.3-6.5s1.8-3.8,2.4-5.2
  c0.4-0.9,0.9-1.8,1.3-2.7c0.4-0.8,0.8-1.7,1.2-2.8c0.4-1,0.8-2.1,1.2-3.2c0.4-1.1,0.7-2.2,0.8-3.3c0.2-1.1,0.4-2.1,0.5-3.3
  c0.1-1.1,0.1-2.1,0-3.1s-0.4-2-0.8-3.3s-1.1-2.2-1.8-3c-1.3-1.4-2.6-2.4-4.1-2.8C20,2,18.5,1.8,16.9,2c-1.6,0.2-3.1,0.6-4.7,1.3
  S9,4.8,7.5,5.8C6.6,6.4,5.8,7.1,5,7.7C4.3,8.3,3.6,9,2.9,9.8c-0.6,0.7-1.1,1.4-1.6,2.1s-0.7,1.5-0.8,2.4c-0.2,1.4-0.1,2.5,0.3,3.4
  c0.3,0.9,0.7,1.6,0.9,2c0.5,0.6,1.1,1.2,1.9,1.7c0.8,0.6,1.5,1,2.3,1.4C6.2,23,6.2,23.2,6,23.6C5.8,24,5.6,24.1,5.3,24
  c-0.6-0.3-1.2-0.7-1.9-1.2c-0.6-0.5-1.2-1-1.6-1.6c-0.4-0.6-0.9-1.4-1.3-2.3C0.2,18.1,0,17.2,0,16.3c-0.1-2,0.5-3.7,1.6-5.4
  c1.1-1.6,2.4-3,3.8-4.2c1.4-1.2,2.9-2.3,4.5-3.3c0.8-0.4,1.7-0.9,2.5-1.3s1.7-0.8,2.6-1.1c1.7-0.6,3.6-0.9,5.5-1.1
  c1.9-0.1,3.7,0.4,5.4,1.3c1.8,1.1,3.2,2.6,4.2,4.5C31.1,7.7,31.7,9.7,31.7,11.7L31.7,11.7z M17.8,42.4c0.2,0.1,0.4,0.2,0.4,0.4
  c0.1,0.4-0.1,0.7-0.5,0.9c-1.1-1.6-2.1-2.6-3.3-3s-2.2-0.4-3.1-0.1c-0.9,0.3-1.6,0.8-2.1,1.5c-0.5,0.7-0.6,1.3-0.4,1.8
  c0.2,0.5,0.8,0.8,1.9,0.8c1.1,0,2.7-0.5,4.9-1.5c2.7-1.2,5.3-2.9,7.9-5c2.6-2.1,5-3.9,7.3-5.4c2.3-1.5,4.4-2.4,6.3-2.6
  c1.9-0.2,3.6,0.9,5,3.3c0.2,0.5,0.2,1,0,1.5c-0.2,0.5-0.5,0.9-1,1.3c-0.5,0.4-1,0.5-1.5,0.5c-0.5,0-1-0.3-1.4-0.9
  c-0.8-1.4-2-2.1-3.7-1.9C32.9,34,31,34.6,29,35.6c-2.1,1-4.2,2.3-6.5,3.8c-2.2,1.5-4.3,2.9-6.3,4.2c-2,1.3-3.7,2.2-5.3,2.9
  c-1.5,0.7-2.6,0.6-3.3-0.1c-1.1-1.1-1.3-2.2-0.9-3.4c0.4-1.1,1.3-2,2.5-2.6c1.2-0.6,2.6-0.8,4.2-0.6C15,39.9,16.5,40.8,17.8,42.4
  L17.8,42.4z M47.9,66.7c0.6-0.3,1.2-0.4,1.7-0.1c0.5,0.3,0.4,0.7-0.4,1.4c-3,1.6-5.7,2.6-8.2,2.8c-2.5,0.2-4.8-0.1-6.8-0.8
  c-2-0.8-3.9-1.9-5.5-3.5c-1.6-1.6-3.1-3.3-4.3-5.2c-2.9-4.4-5.3-10-7-16.7l0.5-1l0.1,1.2c1.5,6.3,3.6,11.5,6.3,15.6
  c1.1,1.7,2.5,3.4,4,4.8c1.5,1.5,3.3,2.6,5.2,3.3c2,0.7,4.1,1,6.5,0.8C42.3,69.1,45,68.3,47.9,66.7L47.9,66.7z"/>
</svg>
