<!-- Generator: Adobe Illustrator 18.0.0, SVG Export Plug-In  -->
<svg version="1.1"
   xmlns="http://www.w3.org/2000/svg" xmlns:xlink="http://www.w3.org/1999/xlink" xmlns:a="http://ns.adobe.com/AdobeSVGViewerExtensions/3.0/"
   x="0px" y="0px" width="120.3px" height="98.7px" viewBox="0 0 120.3 98.7" enable-background="new 0 0 120.3 98.7"
   xml:space="preserve">
<defs>
</defs>
<g>
  <path fill="#757575" d="M109.4,8.1C101.5-0.2,89-2.6,78.7,3.2c-13,7.4-17.4,20-18.6,26.6c-1.2-6.6-5.6-19.1-18.6-26.6
    C31.3-2.6,18.8-0.2,10.9,8.1C4.9,14.3-0.5,23.7,0,32.7c0.8,14.4,7.7,22.7,20.4,31c25.4,16.5,34.9,27.9,38.3,32.8
    c0.4,0.6,0.6,1,0.6,1.1l0.8,1.2l0.8-1.2c0-0.1,0.3-0.5,0.7-1.1c3.4-5,13-16.3,38.2-32.7c12.7-8.3,19.6-16.7,20.4-31
    C120.7,23.7,115.3,14.3,109.4,8.1z M94.6,37.2c0.8,0.3,1.5,0.9,1.9,1.6c1.5,2.4-0.8,4.8-3.1,3.4c-0.5-0.3-0.9-0.6-1.2-1.1
    c0,0,0,0,0,0.1c-0.4,1.5,0.5,3,2,3.5c1.1,0.3,2,0.2,3-0.3c0.9-0.5,1.7-1.5,2-2.8c0.1-0.3,0.1-0.6,0.1-1c0-0.1,0-0.2,0-0.2
    c1.5,2.7,0.7,5.8-2.1,6.7c0.1,0.1,0.2,0.2,0.3,0.3c-0.6-0.1-1.3-0.1-1.9,0c-4.3,0.2-8.7,2-12.2,4.4c-0.5,0.3-1,0.8-1.5,1.1
    c-0.8,0.6-1.5,1.3-2.2,2c-0.3-0.2-0.6-0.4-0.8-0.7c0.2-0.1,0.5-0.3,0.7-0.5c5.9-3.9,9.2-8.8,9.6-14.4
    C90.2,37.7,92.1,36.5,94.6,37.2z M100.7,54.4c0.1,2.7-3.3,3.5-3.3,3.5c-4.9,1.3-9.9,0.4-14.7-1.2c-0.3-0.1-0.7-0.3-1-0.4
    c0.1-0.1,0.2-0.2,0.3-0.4C86.9,50.3,100.4,47.6,100.7,54.4z M47.7,65.9c1.6-1.3,3.3-1.4,5-0.1c2.2,1.7,1.8,5.5,0.7,7.7
    c0,0-1.3,3.4-8,3.9c0.3-2,0.5-3.9,0.6-5.9c0,0,0,0,0,0.1c0.9,0.7,2,0.9,2.7,0.7c0.8-0.1,1.4-0.5,1.8-1.1c0-0.1,0.1-0.1,0.1-0.1
    C47.4,71.5,45.6,68.2,47.7,65.9z M49.9,62.2c-2.3,0.1-3.8,0.9-4.6,2.7c-0.8-3-1.9-5.8-3.8-8.2c0.6-0.4,1.2-0.9,1.8-1.4
    c4.3,2.9,7.5,5.5,9.8,7.6C52.1,62.4,51,62.2,49.9,62.2z M38.5,52.9c-0.5-0.4-1-0.8-1.5-1.1c-3.5-2.4-8-4.2-12.2-4.4
    c-0.6,0-1.3,0-1.9,0c0.1-0.1,0.2-0.2,0.3-0.3c-2.9-0.9-3.6-4-2.1-6.7c0,0.1,0,0.1,0,0.2c0,0.4,0,0.7,0.1,1c0.3,1.3,1,2.3,2,2.8
    c0.9,0.5,1.9,0.6,3,0.3c1.5-0.5,2.4-2,2-3.5c0-0.1,0-0.1,0-0.1c-0.3,0.4-0.7,0.8-1.2,1.1c-2.3,1.4-4.6-1-3.1-3.4
    c0.4-0.7,1.1-1.3,1.9-1.6c2.8-0.8,4.4,0.5,5.6,2.4c0.5,5.5,3.8,10.3,9.6,14.1c0.2,0.1,0.4,0.3,0.7,0.4c-0.3,0.2-0.5,0.5-0.8,0.7
    C40,54.2,39.3,53.5,38.5,52.9z M38.6,56.2c-0.3,0.2-0.7,0.3-1,0.4c-4.7,1.6-9.8,2.5-14.7,1.2c0,0-3.4-0.8-3.3-3.5
    c0.3-6.8,13.9-4.1,18.7,1.5C38.4,56,38.5,56.1,38.6,56.2z M62.9,79.1c0.2,0.9,0.3,1.9,0.3,3c0,4.4-2,8.3-3.1,10.2
    c-1.1-1.8-3.1-5.7-3.1-10.2c0-0.5,0-1.1,0.1-1.6c0-0.1,0-0.1,0-0.2c0-0.3,0.1-0.6,0.1-0.9c0.1-0.4,0.2-0.9,0.3-1.3
    c0.1-0.2,0.1-0.5,0.2-0.7c0,0,0-0.1,0-0.1c0.7-2.4,1.7-4.3,2.4-5.5c0.8,1.4,2.1,3.8,2.7,6.8C62.9,78.8,62.9,79,62.9,79.1z
     M60.1,34.5C60.1,34.5,60.1,34.5,60.1,34.5c0.4,0,0.8-0.2,1-0.5c3.3-5.2,7.8-8.1,12.7-8.1c3.3,0,6.6,1.4,8.9,3.8
    c2.4,2.5,3.6,5.9,3.4,9.5c-0.2,4.8-3.2,9.2-8.4,12.6c-11.3,7.4-15.8,12.6-17.5,15.1c-1.7-2.5-6.3-7.7-17.6-15.1
    c-5.3-3.4-8.2-7.8-8.4-12.6c-0.2-3.6,1-7,3.4-9.5c2.3-2.4,5.5-3.8,8.9-3.8c4.9,0,9.4,2.9,12.7,8.1C59.4,34.3,59.7,34.5,60.1,34.5z
     M67.6,65.7c1.7-1.2,3.4-1.2,5,0.1c2.1,2.3,0.3,5.6-2.8,5c0,0,0,0,0.1,0.1c0.4,0.6,1,1,1.8,1.1c0.7,0.1,1.8,0,2.7-0.7
    c0,0,0,0,0-0.1c0,2,0.2,4,0.6,5.9c-6.7-0.4-8-3.8-8-3.9C65.7,71.3,65.3,67.4,67.6,65.7z M70.4,62.2c-1.1-0.1-2.2,0.2-3.1,0.6
    c2.3-2.1,5.4-4.6,9.7-7.5c0.6,0.5,1.2,0.9,1.8,1.4c-1.9,2.4-3,5.2-3.8,8.2C74.2,63.2,72.7,62.3,70.4,62.2z M5.6,37.3
    c-0.2,0.1-0.3,0.2-0.5,0.4c-0.2,0.2-0.4,0.3-0.5,0.5c-0.1,0.1-0.2,0.2-0.2,0.3c0,0,0,0-0.1,0.1c-0.1,0.1-0.1,0.2-0.1,0.2
    c-0.2,0.4-0.4,0.8-0.5,1.3c-0.7-2.4-1.2-4.8-1.3-7.3C2,26,4.1,20.2,7.7,15.2c-0.7,2.5-0.9,5-0.6,7.6c0.6,6.9,7.1,13.6,14.3,12.7
    c0.5,0,1,0,1.4-0.1c1.9-0.3,3.7-1.1,5.3-2.1c3.6-2.3,5.3-5.5,5.3-9.7c-0.1-1.7-0.7-4-2.4-5.6c-1.6-1.5-4.1-2-6.1-1.2
    c-1,0.4-2,1.3-2.6,2.3c-0.9,1.6-1.1,3.5,0,5.1c0.3,0.4,0.9,0.9,1.5,1.2c0.5,0.2,2.8,0.7,2.2,0.3c-5.7-3.6,3-9.3,4.6-2.9
    c0.2,2.9-1,6.2-3.7,8c-8.2,4.6-16.1-2.9-16.9-9.2C8.3,7.8,24.2,0.3,35.6,3.7c6.2,2,11,5.7,14.5,11.1c-0.6,3.7-4.2,7.3-8.2,5.3
    c-0.8-0.5-1.5-1.2-1.7-2.1c-0.9-2.8,2.3-4.8,4.5-2.8c0.4,0.3,0.6,0.6,0.8,0.9c0.2,0.3,0.3,0.5,0.3,0.5s0.1,0,0.1-0.1
    c0.9-3.2-2.2-5.1-4.7-4.4c-1.2,0.3-2.4,1.2-3,2.4c-0.2,0.3-0.3,0.6-0.4,1c0,0.1,0,0.2-0.1,0.2c-0.9-3.1,0.9-6.2,4.3-6.4
    c-1.5-2.2-5.3-3.6-6.7-0.6c-0.4-4.2-6.5-5.3-6-0.7c-4.1-7-15.4,2.7-9.8,7.4c-2.2-3.4,2.8-5.1,5.4-4.8c3.5,0.4,5.6,2.5,8,4.8
    c2.6,2.5,3.2,5.1,6.9,6.7c5.1,2,9.2,0.5,12.4-4.6c1.5,2.3,3.8,6,4.9,10C53.8,24.5,50,23,46,23c-4,0-7.9,1.7-10.7,4.6
    c-2.4,2.6-3.8,5.8-4.1,9.4c-0.6-0.6-1.2-1.2-2-1.6c-0.6-0.3-2-1-5-0.4c-3.5,0.7-4.6,3.1-7.4,4.9c-2.5,1.6-4.8,3.2-7.8,2.9
    C6.8,42.6,3,40,5.6,37.3z M19,48.5c-0.3,0.2-0.5,0.3-0.8,0.5c-2.5,2.1-3.6,5.4-2.1,8.3c0.2,0.4,0.5,0.8,0.8,1.1
    c-4.4-3.6-7.9-7.5-10.3-11.7c1.6,1.1,3.7,1.2,5.5-0.8c-1.5,4.1,3.9,4.2,5.2,0.5C17.6,47.6,18.3,48.3,19,48.5L19,48.5z M19.1,60.1
    c3.3,1.7,8.7,1.6,13.4,0.6c-0.1,0.1-0.2,0.2-0.2,0.4c-0.4,0.7-0.7,1.5-0.8,2.2c-0.5,2.7,0.3,5.3,1.9,7.1
    C29.7,67.5,20,60.6,19.1,60.1z M34.9,60.1c1.6-0.5,5.5-2.3,5.5-2.3l1.1,1.6c1.2,1.7,2,3.7,2.4,5.7c-0.1-0.3-0.3-0.5-0.5-0.8
    c-0.8-1-1.9-1.6-3.1-1.7c-1.2-0.1-2.2,0.2-3,0.9c-0.7,0.6-1.1,1.4-1.1,2.3c0,0.7,0.2,1.3,0.7,1.8l0.7,0.5l0.2-0.6
    c0.3-0.9,0.8-2,2.2-1.9c1.9,0.2,1.7,2.8,0.6,3.7c-1,1-3.2,0.6-4.3,0.1C32.1,67.3,32.9,62.6,34.9,60.1z M43.8,77.1
    c-1.4-0.2-4.6-2.5-8.6-5.5c1.1,0.6,2.2,0.9,3.4,0.9c1.3,0,2.8-0.3,3.8-1.1c1.1-0.8,1.8-2,2-3.3C44.7,72.9,43.8,77.1,43.8,77.1z
     M45,78.9c0,0,8,0.9,11.1-6.3c0.6-1.4,0.7-3,0.4-4.5c-0.1-1-0.5-1.9-1-2.7c2,2.1,2.9,3.5,3.3,4.1c-1.1,2-3.8,7.3-3.8,13.6
    c0,2.6,0.4,5,1,7C51.3,85.1,44.9,78.8,45,78.9z M64.2,90.1c0.6-2.1,1-4.5,1-7c0-6.3-2.6-11.5-3.8-13.6c0.4-0.6,1.3-2,3.2-4.1
    c-0.5,0.8-0.8,1.7-0.9,2.6c-0.2,1.5-0.1,3.1,0.4,4.5c3.1,7.2,11.1,6.3,11.1,6.3C75.4,78.8,69,85.1,64.2,90.1z M76.5,77.1
    c0,0-0.9-4.2-0.5-9c0.2,1.3,0.9,2.5,2,3.3c1,0.8,2.5,1.2,3.8,1.1c1.2,0,2.3-0.4,3.4-0.9C81.1,74.6,77.9,76.9,76.5,77.1z M84,69.3
    c-1.1,0.5-3.2,0.9-4.3-0.1c-1.1-0.9-1.4-3.5,0.6-3.7c1.4-0.1,1.9,0.9,2.2,1.9l0.2,0.6l0.7-0.5c0.5-0.5,0.7-1.1,0.7-1.8
    c0-0.9-0.4-1.7-1.1-2.3c-0.8-0.7-1.9-1-3-0.9c-1.2,0.1-2.4,0.8-3.1,1.7c-0.2,0.2-0.3,0.5-0.5,0.8c0.4-2,1.2-4,2.4-5.7l1.1-1.6
    c0,0,3.8,1.8,5.5,2.3C87.3,62.6,88.1,67.3,84,69.3z M86.8,70.3c1.7-1.7,2.4-4.4,1.9-7.1c-0.1-0.8-0.4-1.5-0.8-2.2
    c-0.1-0.1-0.1-0.2-0.2-0.4c4.7,1,10.1,1.1,13.4-0.6C100.3,60.6,90.6,67.5,86.8,70.3z M103.3,58.4c0.3-0.3,0.6-0.7,0.8-1.1
    c1.5-2.9,0.4-6.2-2.1-8.3c-0.3-0.2-0.5-0.4-0.8-0.5l0,0c0.8-0.2,1.5-0.9,1.7-2.1c1.3,3.7,6.7,3.7,5.2-0.5c1.8,2,3.8,1.9,5.5,0.8
    C111.1,50.9,107.7,54.9,103.3,58.4z M117.9,32.6c-0.1,2.5-0.6,4.9-1.3,7.3c-0.1-0.4-0.3-0.9-0.5-1.3c0,0,0-0.1-0.1-0.2
    c0,0,0,0-0.1-0.1c-0.1-0.1-0.1-0.2-0.2-0.3c-0.2-0.2-0.3-0.3-0.5-0.5c-0.2-0.1-0.3-0.3-0.5-0.4c2.6,2.7-1.2,5.2-3.4,5.5
    c-3.1,0.3-5.4-1.3-7.8-2.9c-2.7-1.8-3.9-4.1-7.4-4.9c-2.9-0.6-4.4,0.1-4.9,0.4c-0.8,0.4-1.5,0.9-2,1.6c-0.3-3.6-1.7-6.9-4.1-9.4
    c-2.8-2.9-6.7-4.6-10.7-4.6c-4,0-7.7,1.6-10.9,4.4c1.1-4,3.4-7.7,4.9-10c3.2,5.1,7.3,6.6,12.4,4.6c3.7-1.6,4.3-4.2,6.9-6.7
    c2.3-2.2,4.4-4.4,8-4.8c2.5-0.3,7.5,1.4,5.4,4.8C106.4,10.7,95.2,1,91,8c0.4-4.6-5.7-3.4-6,0.7c-1.5-3-5.2-1.6-6.7,0.6
    c3.5,0.3,5.3,3.3,4.3,6.4c0-0.1,0-0.1-0.1-0.2c-0.1-0.4-0.2-0.7-0.4-1c-0.7-1.3-1.8-2.1-3-2.4c-2.4-0.7-5.6,1.3-4.7,4.4
    c0,0.1,0.1,0.1,0.1,0.1s0.1-0.2,0.3-0.5c0.2-0.3,0.4-0.6,0.8-0.9c2.2-2,5.4-0.1,4.5,2.8c-0.3,0.8-0.9,1.6-1.7,2.1
    c-4.1,2-7.6-1.6-8.2-5.3c3.5-5.4,8.4-9.1,14.5-11.1c11.5-3.4,25.7,3.6,25.7,17.4c0,6.9-7.7,14.2-15.9,9.6c-2.3-1.8-4.1-4.7-3.9-7.7
    c1.6-6.4,9.4-1,3.7,2.6c-0.6,0.4,1.7-0.1,2.2-0.3c0.6-0.2,1.2-0.7,1.5-1.2c1.1-1.6,0.9-3.5,0-5.1c-0.6-1-1.5-2-2.6-2.3
    c-2-0.7-4.6-0.3-6.1,1.2c-1.7,1.6-2.3,3.9-2.4,5.6c0,4.2,1.8,7.5,5.3,9.7c1.6,1,3.4,1.8,5.3,2.1c0.5,0.1,1,0.1,1.4,0.1
    c7.2,0.8,13.8-5.9,14.3-12.7c0.3-2.6,0.1-5.1-0.6-7.6C116.2,20.2,118.3,26,117.9,32.6z"/>
</g>
</svg>
