<!-- Generator: Adobe Illustrator 18.0.0, SVG Export Plug-In  -->
<svg version="1.1"
   xmlns="http://www.w3.org/2000/svg" xmlns:xlink="http://www.w3.org/1999/xlink" xmlns:a="http://ns.adobe.com/AdobeSVGViewerExtensions/3.0/"
   x="0px" y="0px" width="90.6px" height="121.8px" viewBox="0 0 90.6 121.8" enable-background="new 0 0 90.6 121.8"
   xml:space="preserve">
<defs>
</defs>
<g>
  <path fill="#757575" d="M17,41.1v0.1c-1.1,3.5-2.9,6.5-1.7,10.3c0.5,1.6,1.3,3,1.9,4.5c0.2,0.6,0.4,1.2,0.7,1.8
    c0.4,0.9,0.9,1.6,1.5,2.2c-0.3-0.4-0.5-1-0.7-1.5c-0.2-0.5-0.2-1.3-0.3-1.8c-0.1-0.6-0.2-1.2-0.2-1.8c-0.1-1.2,0-2.5-0.1-3.6
    c-0.1-1-0.3-1.9-0.5-2.9c-0.5-2.1-0.7-3.7-0.7-6C16.9,42,17,41.6,17,41.1L17,41.1z"/>
  <path fill="#757575" d="M18.7,52c0.1,0.9,0.1,0.6,0.1,1.2c0.1,1.2,1,2,1.6,2.9c-0.3-1.3-0.6-3.1-1.3-3.7C19,52.2,18.8,52.1,18.7,52
    L18.7,52z"/>
  <path fill="#757575" d="M19.8,52.4c-0.2-1.4-0.4-2.8-0.6-4.2c-0.1-0.7-0.7-2-1.4-2.5c-0.5,1.4,0.4,3.1,0.9,4.5
    C18.8,50.8,19.3,51.7,19.8,52.4L19.8,52.4z"/>
  <path fill="#757575" d="M19.3,36.2c-0.1,0.4-0.2,1-0.3,1.2c-0.1,0.2-0.1,0.4-0.2,0.6c-1.1,2.2-1.4,4-0.9,6.5
    c0.3,1.5,1.6,2.1,1.9,3.9c0-0.2,0-0.4,0-0.6c0-0.9,0.3-1.6,0.5-2.3c0.4-1.8,0.3-4.2-0.1-6C19.8,38.4,19.5,37.3,19.3,36.2L19.3,36.2
    z"/>
  <path fill="#757575" d="M14.2,48.3c0.2-0.5,0.3-1.2,0.4-1.7c0.2-1.1,0.4-2,0.7-3c0.5-1.7,1.4-3.3,1.8-5.1c0.4-1.8,1-3,1.8-4.6
    c0.3-0.5,0.5-1.1,0.7-1.6c-0.4,0.4-1,1-1.4,1.3c-0.9,0.6-1.8,1.1-2.7,1.8c-0.9,0.7-1.4,2.2-1.7,3.3c-0.2,0.9-0.4,1.8-0.4,2.8
    c0,0.6,0.1,1.2,0.2,1.8C13.9,44.9,14,46.6,14.2,48.3L14.2,48.3z"/>
  <path fill="#757575" d="M20.7,38.4c0.1-1.4,0.6-2.7,1.2-4c0.7-1.8,1.4-3.7,1.7-5.8c0.1-0.6,0.2-1.3,0.2-1.9
    c0.1-0.5,0.1-1.1,0.1-1.6c-0.1,0.2-0.3,0.4-0.4,0.5c-1.4,2.7-2.9,3.7-3.3,7c-0.1,1-0.1,2,0,3c0,0.5,0.1,1,0.1,1.5
    C20.5,37.5,20.6,37.9,20.7,38.4L20.7,38.4z"/>
  <path fill="#757575" d="M17.9,38.7c0.4-1,1.3-3.6,1.7-5c-0.4,0.9-1.2,2.1-1.2,2.5C18.1,36.9,18,37.8,17.9,38.7L17.9,38.7z"/>
  <path fill="#757575" d="M18.8,30.7c-0.1-0.2-0.3-0.3-0.5-0.3c-0.5,0-1.4,0.9-1.7,1.3c-0.6,0.9-1.1,2.2-1.6,3.3
    c-0.2,0.4-0.5,0.7-0.7,1.2c0.5-0.9,1.3-1.6,2-2.1C17.6,32.9,18.3,32.3,18.8,30.7L18.8,30.7z"/>
  <path fill="#757575" d="M18.7,32.4c1.1-1.3,2.1-3.8,3.1-5.1c1.1-1.5,1.8-3.2,3.2-4.5c0.6-0.5,1.3-1,1.9-1.5
    c-0.3,0.1-0.7,0.3-1.1,0.3c-0.7,0.1-1.4,0.2-2,0.4c-1.2,0.4-2.5,1.8-3,2.9c-0.3,0.6-0.5,1.5-0.7,2.2C19.7,28.7,19.5,30.9,18.7,32.4
    L18.7,32.4z"/>
  <path fill="#757575" d="M19.8,26.2c-0.1,0.2-0.2,0.3-0.3,0.5c-0.2,0.5-0.6,1-0.9,1.5c-0.2,0.5-0.4,1.1-0.6,1.6c0.2-0.1,0.4,0,0.7,0
    c0.4-1.1,0.5-2,0.9-3.1C19.6,26.5,19.7,26.3,19.8,26.2L19.8,26.2z"/>
  <path fill="#757575" d="M24.6,21.4c1.2-0.4,2.1-1.3,2.8-2.2c-0.5,0.1-1.2,0.5-1.6,0.9C25.4,20.2,25.1,20.9,24.6,21.4L24.6,21.4z"/>
  <path fill="#757575" d="M31.1,19.1c0.5,0,1.5-0.1,1.9-0.1c1.4,0,2.5,0.2,3.8-0.1c1.3-0.3,2.6-0.9,3.8-1.3c1-0.3,1.9-0.6,3-0.9
    c-0.6,0-1.2,0-1.8-0.1c-1.4-0.2-1.9-0.7-3.4-0.4c-1.7,0.3-3.4,1.2-5,1.8C32.6,18.2,31.9,18.8,31.1,19.1L31.1,19.1z"/>
  <path fill="#757575" d="M31.9,21.1c0.1,0,0.1-0.1,0.2-0.1c0.6-0.3,2.1-0.7,2.3-1.5C33.7,19.2,32.4,20.4,31.9,21.1L31.9,21.1z"/>
  <path fill="#757575" d="M34.8,15.8c1,0.1,1.8,0.3,2.8,0.1C37.9,14.8,35.6,15.3,34.8,15.8L34.8,15.8z"/>
  <path fill="#757575" d="M30.6,19.6c-0.6,1.1-1,2.1-1.5,3.2c-0.3,0.5-0.5,1.2-0.9,1.7l0.1-0.1c0.4-0.4,0.7-0.7,1.2-1.2
    c0.5-0.5,1.2-1.2,1.7-1.7c0.3-0.7,1-1.3,1.4-2C32.2,19.4,31,19.5,30.6,19.6L30.6,19.6z"/>
  <path fill="#757575" d="M24.1,29.8c0.6-0.9,1.2-1.8,1.9-2.7c0.6-0.9,1.1-1.7,1.5-2.7c0.9-1.6,1.5-3.2,2.2-4.8
    c-1.3,1-4.3,3.3-4.7,4.2c-0.3,0.7-0.4,1.5-0.5,2.2C24.3,27.2,24.4,28.8,24.1,29.8L24.1,29.8z"/>
  <path fill="#757575" d="M26.4,21.1c1-0.2,4.8-2.8,5.5-3.2c1.4-0.6,2.7-1.3,4-1.6c-0.2,0-0.4,0-0.4,0c-0.6-0.1-1.3-0.3-1.9-0.4
    c-0.5-0.1-1.1-0.2-1.6,0c-0.5,0.1-1.3,0.4-1.7,0.7c-0.7,0.5-1.4,1.5-2,2.2C27.6,19.6,27,20.4,26.4,21.1L26.4,21.1z"/>
  <path fill="#757575" d="M18.9,54.9c-0.2,1.3,0,2.9,0.4,3.9c0.4,1.1,1.3,1.8,1.9,2.8c0.4,0.6,0.9,1.2,1.3,1.8c0-0.1-0.1-0.2-0.1-0.3
    c-0.5-1.3-0.9-2.7-1.3-4C20.6,57.4,20,56.1,18.9,54.9L18.9,54.9z"/>
  <path fill="#757575" d="M73.7,41.1v0.1c1.1,3.5,2.9,6.5,1.7,10.3c-0.5,1.6-1.3,3-1.9,4.5c-0.2,0.6-0.4,1.2-0.7,1.8
    c-0.4,0.9-0.9,1.6-1.5,2.2c0.3-0.4,0.5-1,0.7-1.5s0.2-1.3,0.3-1.8c0.1-0.6,0.2-1.2,0.2-1.8c0.1-1.2,0-2.5,0.1-3.6
    c0.1-1,0.3-1.9,0.5-2.9c0.5-2.1,0.7-3.7,0.7-6C73.8,42,73.7,41.6,73.7,41.1L73.7,41.1z"/>
  <path fill="#757575" d="M72,52c-0.1,0.9-0.1,0.6-0.1,1.2c-0.1,1.2-1,2-1.6,2.9c0.3-1.3,0.6-3.1,1.3-3.7C71.6,52.2,71.9,52.1,72,52
    L72,52z"/>
  <path fill="#757575" d="M70.8,52.4c0.2-1.4,0.4-2.8,0.6-4.2c0.1-0.7,0.7-2,1.4-2.5c0.5,1.4-0.4,3.1-0.9,4.5
    C71.9,50.8,71.3,51.7,70.8,52.4L70.8,52.4z"/>
  <path fill="#757575" d="M71.3,36.2c0.1,0.4,0.2,1,0.3,1.2c0.1,0.2,0.1,0.4,0.2,0.6c1.1,2.2,1.4,4,0.9,6.5c-0.3,1.5-1.6,2.1-1.9,3.9
    c0-0.2,0-0.4,0-0.6c0-0.9-0.3-1.6-0.5-2.3c-0.4-1.8-0.3-4.2,0.1-6C70.8,38.4,71.1,37.3,71.3,36.2L71.3,36.2z"/>
  <path fill="#757575" d="M76.4,48.3c-0.2-0.5-0.3-1.2-0.4-1.7c-0.2-1.1-0.4-2-0.7-3c-0.5-1.7-1.4-3.3-1.8-5.1c-0.4-1.8-1-3-1.8-4.6
    c-0.3-0.5-0.5-1.1-0.7-1.6c0.4,0.4,1,1,1.4,1.3c0.9,0.6,1.8,1.1,2.7,1.8c0.9,0.7,1.4,2.2,1.7,3.3c0.2,0.9,0.4,1.8,0.4,2.8
    c0,0.6-0.1,1.2-0.2,1.8C76.8,44.9,76.7,46.6,76.4,48.3L76.4,48.3z"/>
  <path fill="#757575" d="M69.9,38.4c-0.1-1.4-0.6-2.7-1.2-4c-0.7-1.8-1.4-3.7-1.7-5.8c-0.1-0.6-0.2-1.3-0.2-1.9
    c-0.1-0.5-0.1-1.1-0.1-1.6c0.1,0.2,0.3,0.4,0.4,0.5c1.4,2.7,2.9,3.7,3.3,7c0.1,1,0.1,2,0,3c0,0.5-0.1,1-0.1,1.5
    C70.2,37.5,70,37.9,69.9,38.4L69.9,38.4z"/>
  <path fill="#757575" d="M72.7,38.7c-0.4-1-1.3-3.6-1.7-5c0.4,0.9,1.2,2.1,1.2,2.5C72.5,36.9,72.6,37.8,72.7,38.7L72.7,38.7z"/>
  <path fill="#757575" d="M71.9,30.7c0.1-0.2,0.3-0.3,0.5-0.3c0.5,0,1.4,0.9,1.7,1.3c0.6,0.9,1.1,2.2,1.6,3.3
    c0.2,0.4,0.5,0.7,0.7,1.2c-0.5-0.9-1.3-1.6-2-2.1C73,32.9,72.4,32.3,71.9,30.7L71.9,30.7z"/>
  <path fill="#757575" d="M72,32.4c-1.1-1.3-2.1-3.8-3.1-5.1c-1.1-1.5-1.8-3.2-3.2-4.5c-0.6-0.5-1.3-1-1.9-1.5
    c0.3,0.1,0.7,0.3,1.1,0.3c0.7,0.1,1.4,0.2,2,0.4c1.2,0.4,2.5,1.8,3,2.9c0.3,0.6,0.5,1.5,0.7,2.2C70.9,28.7,71.1,30.9,72,32.4
    L72,32.4z"/>
  <path fill="#757575" d="M70.8,26.2c0.1,0.2,0.2,0.3,0.3,0.5c0.2,0.5,0.6,1,0.9,1.5c0.2,0.5,0.4,1.1,0.6,1.6c-0.2-0.1-0.4,0-0.7,0
    c-0.4-1.1-0.5-2-0.9-3.1C71,26.5,70.9,26.3,70.8,26.2L70.8,26.2z"/>
  <path fill="#757575" d="M66,21.4c-1.2-0.4-2.1-1.3-2.8-2.2c0.5,0.1,1.2,0.5,1.6,0.9C65.2,20.2,65.6,20.9,66,21.4L66,21.4z"/>
  <path fill="#757575" d="M59.5,19.1C59,19.1,58,19,57.6,19c-1.4,0-2.5,0.2-3.8-0.1c-1.3-0.3-2.6-0.9-3.8-1.3c-1-0.3-1.9-0.6-3-0.9
    c0.6,0,1.2,0,1.8-0.1c1.4-0.2,1.9-0.7,3.4-0.4c1.7,0.3,3.4,1.2,5,1.8C58,18.2,58.7,18.8,59.5,19.1L59.5,19.1z"/>
  <path fill="#757575" d="M58.7,21.1c-0.1,0-0.1-0.1-0.2-0.1c-0.6-0.3-2.1-0.7-2.3-1.5C56.9,19.2,58.2,20.4,58.7,21.1L58.7,21.1z"/>
  <path fill="#757575" d="M55.9,15.8c-1,0.1-1.7,0.3-2.8,0.1C52.8,14.8,55,15.3,55.9,15.8L55.9,15.8z"/>
  <path fill="#757575" d="M60,19.6c0.6,1.1,1,2.1,1.5,3.2c0.3,0.5,0.5,1.2,0.9,1.7l-0.1-0.1c-0.4-0.4-0.7-0.7-1.2-1.2
    c-0.5-0.5-1.2-1.2-1.7-1.7c-0.3-0.7-1-1.3-1.4-2C58.4,19.4,59.6,19.5,60,19.6L60,19.6z"/>
  <path fill="#757575" d="M66.5,29.8c-0.6-0.9-1.2-1.8-1.9-2.7c-0.6-0.9-1.1-1.7-1.5-2.7c-0.9-1.6-1.5-3.2-2.2-4.8
    c1.3,1,4.3,3.3,4.7,4.2c0.3,0.7,0.4,1.5,0.5,2.2C66.3,27.2,66.2,28.8,66.5,29.8L66.5,29.8z"/>
  <path fill="#757575" d="M64.3,21.1c-1-0.2-4.8-2.8-5.5-3.2c-1.4-0.6-2.7-1.3-4-1.6c0.2,0,0.4,0,0.4,0c0.6-0.1,1.3-0.3,1.9-0.4
    c0.5-0.1,1.1-0.2,1.6,0c0.5,0.1,1.3,0.4,1.7,0.7c0.7,0.5,1.4,1.5,2,2.2C63,19.6,63.6,20.4,64.3,21.1L64.3,21.1z"/>
  <path fill="#757575" d="M71.7,54.9c0.2,1.3,0,2.9-0.4,3.9c-0.4,1.1-1.3,1.8-1.9,2.8c-0.4,0.6-0.9,1.2-1.3,1.8
    c0-0.1,0.1-0.2,0.1-0.3c0.5-1.3,0.9-2.7,1.3-4C70,57.4,70.7,56.1,71.7,54.9L71.7,54.9z"/>
  <path fill="#757575" d="M68.2,76.5c0.9-1.4,3.1-2,4.4-3c1.4-0.9,1.7-1.8,2.7-3c0.3-0.4,0.7-0.9,1.1-1.3c0.3-0.4,0.7-1.4,0.9-1.9
    c0.3-1.2,0.1-2,0.7-3.2c1.2-1.9,2.9-3.3,3.8-5.5c0.7-1.7,0.4-3,0.2-4.7c-0.1-0.7-0.1-1.6-0.3-2.3l0,0l0,0c-0.5-0.5-1.5-1.5-2.1-0.7
    c-0.4,0.4-0.9,1.8-1,2.5c-0.1,0.9,0.4,2.2,1.4,2.6h0.1l0,0c0.5-0.3,0.9-1.1,1-1.6l0,0l0,0c-0.1-0.6-0.5-1.4-1.1-1.7l-0.3-0.1v0.3
    c0.1,0.6,0.6,0.9,0.6,1.5c0,0.2-0.2,1-0.4,1c-0.3,0-0.5-0.7-0.6-1.1c-0.1-0.2-0.1-0.5-0.1-0.7c0-0.4,0.3-1.5,0.7-1.7
    c0.3-0.2,0.9,0.3,1.2,0.5c0.1,1.5,0.5,2.8,0,4.3c-0.2,0.7-0.7,1.4-1.2,2c-1,1.3-1.9,2.3-3,3.5c-0.5,0.5-1.3,1.2-1.6,1.8
    c-0.3,0.6-0.4,1.3-0.7,1.9c-0.2,0.6-0.4,1.3-0.6,1.9c-0.1,0.9,0.1,1.7,0.1,2.6c0,1-0.2,1.8-1,2.6c-0.9,0.9-2.2,1.3-3.3,1.9
    c-1,0.6-1.3,1.2-2,2l-0.1,0.1l0.1,0.1c0,0,0,0.1,0.1,0.1l0.1,0.1l0.1-0.1C68.1,76.6,68.2,76.6,68.2,76.5L68.2,76.5z"/>
  <path fill="#757575" d="M76.7,74c0.2-0.1,0.4-0.1,0.5,0c0.1,0.1-0.2,0.9-0.3,1.1c-1.1,0.7-1.9,1.6-3.2,2c-0.5,0.2-1.2,0.2-1.7,0.2
    c-1.1,0-2.2,0-3.3,0c-0.6,0-1.3-0.1-1.8,0c-0.5,0.1-1.1,0.4-1.6,0.5c-0.5,0.2-1.1,0.4-1.6,0.6c-1.5,0.7-2.3,2-4.2,2.1
    c-1,0-1.7-0.4-2.6-0.5s-1.5,0-2.3,0.2h-0.1v0.1l0,0l-0.3,0.2l0.3,0.1c0.1,0,0.2,0,0.2,0c1.4-0.3,2.5,0.2,3.8,0.4
    c1.2,0.2,2-0.1,3.1-0.2c0.4-0.1,0.9,0,1.3-0.1c0.4-0.1,1.3-0.3,1.7-0.5c1-0.4,1.6-1,2.6-1.2c1.6-0.3,3.2,0,4.8-0.4
    c1.4-0.3,2.3-1.2,3.4-2c0.5-0.4,1.2-0.9,1.7-1.3l0,0l0,0c0.2-0.4,1-1.7,0.2-1.9c-0.4-0.1-1.6,0.3-2,0.5c-0.6,0.3-1.6,1.4-1.6,2.1
    v0.1h0.1c0.4,0.2,1.1,0,1.4-0.1l0,0l0,0c0.4-0.3,0.7-0.6,0.9-1.2l0.1-0.3c-0.9,0.3-0.5,0.6-1.1,1c-0.1,0.1-0.5,0.2-0.6,0.2
    c0-0.3,0.9-1.2,1.2-1.3C75.9,74.2,76.3,74.1,76.7,74L76.7,74z"/>
  <path fill="#757575" d="M88.1,59.8c-0.2-0.5,0.1-2,0.7-2c0.1,0.1,0.1,0.2,0.3,0.2h0.1v-0.1c0.1-0.6-0.3-0.9-0.9-0.5
    c-0.3,0.2-0.7,0.7-0.9,1.2c-0.2,0.5-0.3,1.8,0.1,2.1c0.3,0.2,1,0.1,1.3-0.1c0.9-0.5,1.6-2.6,1.6-3.5c0-0.4-0.4-1.8-0.6-2.1
    c-0.6-1-1.4,0.1-1.9,0.5c-0.9,0.7-1.6,1.4-2.2,2.2c-0.3,0.5-0.6,1.2-1,1.7c-0.4,0.6-1,1.2-1.5,1.6c-0.5,0.4-1.1,0.9-1.5,1.3
    c-1.1,1.2-2.1,2.6-3,3.8c-0.7,1.1-1.3,2-1.9,3.2c-0.5,1.1-1,2-1.7,3c-0.9,1.1-2.1,1.9-3.3,2.5c-0.4,0.2-1.1,0.2-1.2,0.7l-0.1,0.2
    l0.2-0.1c0.5-0.1,1.2-0.4,1.7-0.6c0.5-0.3,1.2-0.5,1.7-1c1.7-1.1,2.8-2.6,3.9-4.2c0.3-0.4,0.6-0.9,1-1.4c0.3-0.5,0.5-1.1,1-1.5
    c1.1-1.2,2.3-1.8,3.5-2.8c0.9-0.7,1.9-2,2.3-3.1c0.3-0.9,0.4-1.8,0.9-2.7c0.4-0.7,1-1.3,1.4-1.9c0.2-0.2,0.6-1,0.7-1.1H89
    c0.3,0,0.6,0.9,0.7,1.1c0.1,0.3,0.1,0.5,0.1,0.9c-0.1,0.6-0.4,1.4-0.9,1.8C88.8,59.5,88.4,59.9,88.1,59.8L88.1,59.8z"/>
  <path fill="#757575" d="M68.9,69.8C68.9,69.7,68.9,69.7,68.9,69.8c-0.3-0.7,0.6-1.7,1.2-1.9c0.2-0.1,0.6-0.1,1-0.1
    c0.2,0,1.1,0.1,1.1,0.4c0,0.2-0.4,0.7-0.5,1c-0.3,0.6-0.5,1.2-1.1,1.7c-0.6,0.5-1.5,0.7-2.2,1.1c-1,0.5-2,1.4-2.9,2.1
    c-1.3,1.1-1.8,2-3.5,2.6c-0.5,0.2-1,0.5-1.6,0.6c-0.6,0.1-1.2,0.2-1.8,0.2c-2.9,0-5.2,0.7-7.9,1.8c-1.4,0.5-2.8,1.1-4.3,1.5
    L46,80.9l0.2,0.2c0.4,0.4,2.1-0.3,2.8-0.3c3.2-0.5,5.6-2.6,9.1-2.1c1.5,0.2,2.9,0,4.4-0.3c1.5-0.4,3.8-1.3,5-2.2
    c1.1-0.9,1.8-2.2,2.8-3.2c0.4-0.4,1-0.7,1.4-1.3c0.6-0.9,0.9-1.6,1.1-2.7c0.1-0.7,0.4-1.6-0.5-1.8c-0.4-0.1-1.6-0.1-1.9,0
    c-0.7,0.2-2,1.2-2.2,1.9c-0.1,0.3,0,1,0.3,1.2c0.4,0.3,1.5,0.1,1.9-0.2c0.3-0.2,0.6-0.7,0.6-1.1c0-0.5-0.3-0.9-0.9-0.6l-0.1,0.1
    v0.1c0.1,0.2,0.2,0.2,0.3,0.3C70.5,69.4,69.4,69.9,68.9,69.8L68.9,69.8z"/>
  <path fill="#757575" d="M85.1,27.8c-0.5-0.2-1.5-1.5-1.2-2c0.1,0,0.2,0.1,0.3-0.1v-0.1l-0.1-0.1c-0.4-0.5-0.9-0.4-1,0.2
    c0,0.4,0.1,1.1,0.3,1.5c0.2,0.4,1.2,1.5,1.7,1.5c0.4,0,0.7-0.6,0.7-1c0.2-1-1.1-3-1.7-3.6c-0.3-0.3-1.7-1-2.1-1.1
    c-1.2-0.2-0.7,1.1-0.7,1.8c0,1.2,0.1,2.1,0.4,3.2c0.2,0.6,0.4,1.3,0.6,1.9c0.2,0.7,0.2,1.5,0.2,2.2c0,0.6-0.1,1.4,0,2
    c0.1,1.6,0.5,3.3,0.9,4.8c0.2,1.2,0.6,2.3,1.1,3.5c0.4,1.1,0.9,2,1.1,3.2s0.1,2.7-0.3,3.8c-0.1,0.4-0.5,0.9-0.2,1.3l0.1,0.2
    l0.1-0.2c0.2-0.5,0.4-1.1,0.6-1.6c0.2-0.5,0.3-1.2,0.4-1.8c0.3-1.9-0.1-3.6-0.5-5.5c-0.1-0.5-0.2-1.1-0.3-1.6
    c-0.1-0.5-0.4-1.1-0.4-1.7c-0.2-1.6,0.2-2.9,0.2-4.4c0-1.2-0.3-2.8-0.7-3.8c-0.4-0.9-1.2-1.6-1.5-2.5c-0.3-0.9-0.4-1.6-0.5-2.3
    c-0.1-0.3-0.4-1.1-0.3-1.3v-0.1c0.2-0.2,1.2,0.2,1.4,0.3s0.5,0.3,0.7,0.5c0.4,0.5,0.7,1.2,1,1.8C85.3,27,85.4,27.6,85.1,27.8
    L85.1,27.8L85.1,27.8z"/>
  <path fill="#757575" d="M78.4,34c0,0.1,0,0.3,0,0.4c-0.6,0.1-1.6-1.4-1.1-1.9c0.4-0.4,1.6,0.3,1.9,0.7c0.1,0.1,0.1,0.1,0.2,0.2
    c0.4,0.6,0.6,1.5,0.9,2.2c0.4,1.5,0.4,2.8,0.3,4.3c-0.1,0.7-0.2,1.4-0.1,2.1c0.1,0.9,0.3,1.6,0.5,2.5s0.4,2,0.9,2.7
    c0.5,1,1.2,1.8,1.4,2.9c0.4,1.5-0.6,2.8-0.6,4.3c0,0.9,0.1,1.9,0.4,2.8l0.2,0.6l0.1-0.7c0.1-0.7-0.1-1.5,0.1-2.3
    c0.1-0.3,0.3-0.7,0.4-1.2c0.1-0.4,0.2-0.9,0.3-1.3c0.1-0.5,0.3-1,0.4-1.5c0.1-0.7,0.2-1.9,0-2.6c-0.3-1.1-0.9-1.9-1.2-3
    c-0.3-0.9,0.1-2-0.1-3c-0.1-0.7-0.5-1.5-0.9-2.1c-0.4-0.9-0.6-1.7-1-2.6c-0.4-1.8-0.5-3-1.7-4.6c-0.2-0.2-0.4-0.4-0.6-0.5
    c-0.5-0.4-1.7-1.1-2.3-0.5c-1,0.9,0.1,2.6,0.9,3.1c0.2,0.2,1,0.4,1.3,0.2c0.5-0.5-0.4-2.3-1.2-1.9l-0.1,0.1l0.1,0.1
    C77.9,33.8,78.1,33.8,78.4,34L78.4,34z"/>
  <path fill="#757575" d="M89.1,44.1c-0.1-0.4-0.2-0.9-0.2-1.3c0-0.3,0.2-1.5,0.4-1.7c0,0,0,0,0.1,0c0.4-0.1,0.7,0.9,0.7,1.1
    c0,0.3-0.1,1.1-0.4,0.4c0-0.1-0.1-0.2-0.1-0.2c0-0.1-0.1-0.5-0.3-0.5c-0.1,0-0.1,0.1-0.2,0.1l0,0l0,0c0,0.5,0.3,1.8,1,1.7
    c0.4-0.1,0.6-1,0.5-1.4c0-0.5-0.2-1.2-0.5-1.6c-0.2-0.3-0.5-0.7-1-0.7c-0.7,0-1.1,1.6-1.2,2.2c-0.1,1,0.2,2,0.3,3
    c0.1,1.3-0.1,1.9-0.7,3c-0.3,0.4-0.5,1-1,1.4c-1.3,1.7-2,2.8-2.6,4.9c-0.2,1-0.2,2-0.4,3c-0.2,0.6-0.5,1.3-0.9,1.9
    c-0.3,0.5-0.7,1-1.1,1.5l-0.2,0.4l0.4-0.2c0.6-0.3,1.1-1.2,1.5-1.7c0.3-0.4,0.9-0.9,1.1-1.4c0.2-0.4,0.3-1,0.4-1.5
    c0.6-1.9,2.1-2.3,3-3.8c0.4-0.7,0.5-1.6,0.7-2.3c0.2-0.9,0.4-1.7,0.5-2.6C89.4,46.5,89.2,45.3,89.1,44.1L89.1,44.1z"/>
  <path fill="#757575" d="M70.3,18.2c0.4,0.2,1.7,1,1.8,0.1c0-0.4-0.7-1.2-1.1-1.3c-0.5-0.3-1.1-0.5-1.7-0.5c-0.3,0-1,0-1,0.4
    c-0.1,0.6,1.2,1.9,1.6,2.3c0.7,0.6,1.8,1,2.7,1.5c1.2,0.7,1.7,1.4,2.2,2.5c0.3,0.6,0.6,1.3,0.9,2c0.6,1.8,1.2,3.2,2.5,4.8
    c0.6,0.7,1.4,1.4,2,2.1c0.4,0.5,0.7,1.2,1,1.8c0.2,0.5,0.3,1.2,0.5,1.7l0.2,0.5l0.1-0.5c0.1-0.7-0.3-1.6-0.5-2.2
    c-0.1-0.5-0.2-1.2-0.5-1.7c-0.2-0.4-0.6-0.9-0.9-1.3c-1.1-1.6-0.7-3.3-1.6-4.9c-0.4-0.7-1.1-1.4-1.6-2.1c-0.5-0.7-1.2-1.4-1.9-1.9
    c-1-0.7-2-1.3-3.1-1.8c-0.4-0.2-0.9-0.4-1.2-0.6c-0.4-0.2-1.4-1.2-1.5-1.6c0-0.1,0-0.1,0-0.2c0.2-0.3,1,0,1.2,0.1
    c0.1,0.1,0.7,0.4,0.6,0.6c0,0.1-0.2,0-0.2,0c-0.1,0-0.2,0-0.2-0.1c-0.1,0-0.4-0.2-0.5,0C70,18.1,70.2,18.1,70.3,18.2L70.3,18.2
    L70.3,18.2L70.3,18.2z"/>
  <path fill="#757575" d="M22.4,76.5c-0.9-1.4-3.1-2-4.4-3c-1.4-0.9-1.7-1.8-2.7-3c-0.3-0.4-0.7-0.9-1.1-1.3
    c-0.3-0.4-0.7-1.4-0.9-1.9c-0.3-1.2-0.1-2-0.7-3.2c-1.2-1.9-2.9-3.3-3.8-5.5c-0.7-1.7-0.4-3-0.2-4.7c0.1-0.7,0.1-1.6,0.3-2.3l0,0
    l0,0c0.5-0.5,1.5-1.5,2.1-0.7c0.4,0.4,0.9,1.8,1,2.5c0.1,0.9-0.4,2.2-1.4,2.6h-0.1l0,0c-0.5-0.3-0.9-1.1-1-1.6l0,0l0,0
    c0.1-0.6,0.5-1.4,1.1-1.7l0.3-0.1v0.3c-0.1,0.6-0.6,0.9-0.6,1.5c0,0.2,0.2,1,0.4,1c0.3,0,0.5-0.7,0.6-1.1c0.1-0.2,0.1-0.5,0.1-0.7
    c0-0.4-0.3-1.5-0.7-1.7c-0.3-0.2-0.9,0.3-1.2,0.5c-0.1,1.5-0.5,2.8,0,4.3c0.2,0.7,0.7,1.4,1.2,2c1,1.3,1.9,2.3,3,3.5
    c0.5,0.5,1.3,1.2,1.6,1.8c0.3,0.6,0.4,1.3,0.7,1.9c0.2,0.6,0.4,1.3,0.6,1.9c0.1,0.9-0.1,1.7-0.1,2.6c0,1,0.2,1.8,1,2.6
    c0.9,0.9,2.2,1.3,3.3,1.9c1,0.6,1.3,1.2,2,2l0.1,0.1l-0.1-0.2c0,0,0,0.1-0.1,0.1l-0.1,0.1l-0.1-0.1C22.5,76.6,22.4,76.6,22.4,76.5
    L22.4,76.5z"/>
  <path fill="#757575" d="M14,74c-0.2-0.1-0.4-0.1-0.5,0c-0.1,0.1,0.2,0.9,0.3,1.1c1.1,0.7,1.9,1.6,3.2,2c0.5,0.2,1.2,0.2,1.7,0.2
    c1.1,0,2.2,0,3.3,0c0.6,0,1.3-0.1,1.8,0c0.5,0.1,1.1,0.4,1.6,0.5c0.5,0.2,1.1,0.4,1.6,0.6c1.5,0.7,2.3,2,4.2,2.1
    c1,0,1.7-0.4,2.6-0.5s1.5,0,2.3,0.2h0.1v0.1l0,0l0.3,0.2l-0.3,0.1c-0.1,0-0.2,0-0.2,0c-1.4-0.3-2.5,0.2-3.8,0.4
    c-1.2,0.2-2-0.1-3.1-0.2c-0.4-0.1-0.9,0-1.3-0.1c-0.4-0.1-1.3-0.3-1.7-0.5c-1-0.4-1.6-1-2.6-1.2c-1.6-0.3-3.2,0-4.8-0.4
    c-1.4-0.3-2.3-1.2-3.4-2c-0.5-0.4-1.2-0.9-1.7-1.3l0,0l0,0c-0.2-0.4-1-1.7-0.2-1.9c0.4-0.1,1.6,0.3,2,0.5c0.6,0.3,1.6,1.4,1.6,2.1
    v0.1h-0.1c-0.4,0.2-1.1,0-1.4-0.1l0,0l0,0c-0.4-0.3-0.7-0.6-0.9-1.2l-0.1-0.3c0.9,0.3,0.5,0.6,1.1,1c0.1,0.1,0.5,0.2,0.6,0.2
    c0-0.3-0.9-1.2-1.2-1.3C14.7,74.2,14.3,74.1,14,74L14,74z"/>
  <path fill="#757575" d="M2.6,59.8c0.2-0.5-0.1-2-0.7-2C1.7,57.9,1.7,58,1.5,58H1.4v-0.1c-0.1-0.6,0.3-0.9,0.9-0.5
    c0.3,0.2,0.7,0.7,0.9,1.2C3.3,59,3.4,60.3,3,60.6c-0.3,0.2-1,0.1-1.3-0.1C0.9,60,0.1,58,0.1,57c0-0.4,0.4-1.8,0.6-2.1
    c0.6-1,1.4,0.1,1.9,0.5c0.9,0.7,1.6,1.4,2.2,2.2c0.3,0.5,0.6,1.2,1,1.7c0.4,0.6,1,1.2,1.5,1.6c0.5,0.4,1.1,0.9,1.5,1.3
    c1.1,1.2,2.1,2.6,3,3.8c0.7,1.1,1.3,2,1.9,3.2c0.5,1.1,1,2,1.7,3c0.9,1.1,2.1,1.9,3.3,2.5c0.4,0.2,1.1,0.2,1.2,0.7l0.1,0.2
    l-0.2-0.1c-0.5-0.1-1.2-0.4-1.7-0.6c-0.5-0.3-1.2-0.5-1.7-1c-1.7-1.1-2.8-2.6-3.9-4.2c-0.3-0.4-0.6-0.9-1-1.4
    c-0.3-0.5-0.5-1.1-1-1.5c-1.1-1.2-2.3-1.8-3.5-2.8c-0.9-0.7-1.9-2-2.3-3.1c-0.3-0.9-0.4-1.8-0.9-2.7c-0.4-0.7-1-1.3-1.4-1.9
    c-0.2-0.2-0.6-1-0.7-1.1H1.6c-0.3,0-0.6,0.9-0.7,1.1c-0.1,0.3-0.1,0.5-0.1,0.9c0.1,0.6,0.4,1.4,0.9,1.8C1.8,59.5,2.3,59.9,2.6,59.8
    L2.6,59.8z"/>
  <path fill="#757575" d="M21.8,69.8C21.8,69.7,21.8,69.7,21.8,69.8c0.3-0.7-0.6-1.7-1.2-1.9c-0.2-0.1-0.6-0.1-1-0.1
    c-0.2,0-1.1,0.1-1.1,0.4c0,0.2,0.4,0.7,0.5,1c0.3,0.6,0.5,1.2,1.1,1.7c0.6,0.5,1.5,0.7,2.2,1.1c1,0.5,2,1.4,2.9,2.1
    c1.3,1.1,1.8,2,3.5,2.6c0.5,0.2,1,0.5,1.6,0.6c0.6,0.1,1.2,0.2,1.8,0.2c2.9,0,5.2,0.7,7.9,1.8c1.4,0.5,2.8,1.1,4.3,1.5l0.3,0.1
    l-0.3,0.2c-0.5,0.4-2.1-0.3-2.8-0.3c-3.2-0.5-5.6-2.6-9.1-2.1c-1.5,0.2-2.9,0-4.4-0.3c-1.5-0.4-3.8-1.3-5-2.2
    c-1.1-0.9-1.8-2.2-2.8-3.2c-0.4-0.4-1-0.7-1.4-1.3c-0.6-0.9-0.9-1.6-1.1-2.7c-0.1-0.7-0.4-1.6,0.5-1.8c0.4-0.1,1.6-0.1,1.9,0
    c0.7,0.2,2,1.2,2.2,1.9c0.1,0.3,0,1-0.3,1.2c-0.4,0.3-1.5,0.1-1.9-0.2c-0.3-0.2-0.6-0.7-0.6-1.1c0-0.5,0.3-0.9,0.9-0.6l0.1,0.1v0.1
    c-0.1,0.2-0.2,0.2-0.3,0.3C20.2,69.4,21.2,69.9,21.8,69.8L21.8,69.8z"/>
  <path fill="#757575" d="M5.6,27.8c0.5-0.2,1.5-1.5,1.2-2c-0.1,0-0.2,0.1-0.3-0.1v-0.1l0.1-0.1c0.4-0.5,0.9-0.4,1,0.2
    c0,0.4-0.1,1.1-0.3,1.5S6,28.7,5.5,28.7c-0.4,0-0.7-0.6-0.7-1c-0.2-1,1.1-3,1.7-3.6c0.3-0.3,1.7-1,2.1-1.1c1.2-0.2,0.7,1.1,0.7,1.8
    C9.3,26,9.2,27,8.9,28c-0.2,0.6-0.4,1.3-0.6,1.9C8,30.7,8,31.4,8,32.2c0,0.6,0.1,1.4,0,2c-0.1,1.6-0.5,3.3-0.9,4.8
    c-0.2,1.2-0.6,2.3-1.1,3.5c-0.4,1.1-0.9,2-1.1,3.2s-0.1,2.7,0.3,3.8c0.1,0.4,0.5,0.9,0.2,1.3L5.5,51l-0.1-0.2
    c-0.2-0.5-0.4-1.1-0.6-1.6c-0.2-0.5-0.3-1.2-0.4-1.8c-0.3-1.9,0.1-3.6,0.5-5.5c0.1-0.5,0.2-1.1,0.3-1.6c0.1-0.5,0.4-1.1,0.4-1.7
    c0.2-1.6-0.2-2.9-0.2-4.4c0-1.2,0.3-2.8,0.7-3.8c0.4-0.9,1.2-1.6,1.5-2.5c0.3-0.9,0.4-1.6,0.5-2.3c0.1-0.3,0.4-1.1,0.3-1.3v-0.1
    c-0.2-0.2-1.2,0.2-1.4,0.3S6.5,24.8,6.3,25c-0.4,0.5-0.7,1.2-1,1.8C5.4,27,5.2,27.6,5.6,27.8L5.6,27.8L5.6,27.8z"/>
  <path fill="#757575" d="M12.3,34c0,0.1,0,0.3,0,0.4c0.6,0.1,1.6-1.4,1.1-1.9c-0.4-0.4-1.6,0.3-1.9,0.7c-0.1,0.1-0.1,0.1-0.2,0.2
    c-0.4,0.6-0.6,1.5-0.9,2.2C9.9,37.2,9.9,38.5,10,40c0.1,0.7,0.2,1.4,0.1,2.1c-0.1,0.9-0.3,1.6-0.5,2.5s-0.4,2-0.9,2.7
    c-0.5,1-1.2,1.8-1.4,2.9C7,51.6,8,52.9,8,54.4c0,0.9-0.1,1.9-0.4,2.8l-0.2,0.6L7.3,57c-0.1-0.7,0.1-1.5-0.1-2.3
    c-0.1-0.3-0.3-0.7-0.4-1.2c-0.1-0.4-0.2-0.9-0.3-1.3c-0.1-0.5-0.3-1-0.4-1.5c-0.1-0.7-0.2-1.9,0-2.6c0.3-1.1,0.9-1.9,1.2-3
    c0.3-0.9-0.1-2,0.1-3c0.1-0.7,0.5-1.5,0.9-2.1c0.4-0.9,0.6-1.7,1-2.6c0.4-1.8,0.5-3,1.7-4.6c0.2-0.2,0.4-0.4,0.6-0.5
    c0.5-0.4,1.7-1.1,2.3-0.5c1,0.9-0.1,2.6-0.9,3.1c-0.2,0.2-1,0.4-1.3,0.2c-0.5-0.5,0.4-2.3,1.2-1.9l0.1,0.1l-0.1,0.1
    C12.7,33.8,12.5,33.8,12.3,34L12.3,34z"/>
  <path fill="#757575" d="M1.5,44.1c0.1-0.4,0.2-0.9,0.2-1.3c0-0.3-0.2-1.5-0.4-1.7c0,0,0,0-0.1,0C0.8,41,0.5,42,0.5,42.2
    c0,0.3,0.1,1.1,0.4,0.4c0-0.1,0.1-0.2,0.1-0.2c0-0.1,0.1-0.5,0.3-0.5c0.1,0,0.1,0.1,0.2,0.1l0,0l0,0c0,0.5-0.3,1.8-1,1.7
    c-0.4-0.1-0.6-1-0.5-1.4c0-0.5,0.2-1.2,0.5-1.6c0.2-0.3,0.5-0.7,1-0.7c0.7,0,1.1,1.6,1.2,2.2c0.1,1-0.2,2-0.3,3
    c-0.1,1.3,0.1,1.9,0.7,3c0.3,0.4,0.5,1,1,1.4c1,1.7,1.8,2.8,2.2,4.9c0.2,1,0.2,2,0.4,3c0.2,0.6,0.5,1.3,0.9,1.9
    c0.3,0.5,0.7,1,1.1,1.5l0.2,0.4l-0.4-0.2c-0.6-0.3-1.1-1.2-1.5-1.7c-0.3-0.4-0.9-0.9-1.1-1.4c-0.2-0.4-0.3-1-0.4-1.5
    c-0.6-1.9-2.1-2.3-3-3.8c-0.4-0.7-0.5-1.6-0.7-2.3c-0.2-0.9-0.4-1.7-0.5-2.6C1.2,46.5,1.4,45.3,1.5,44.1L1.5,44.1z"/>
  <path fill="#757575" d="M20.4,18.2c-0.4,0.2-1.7,1-1.8,0.1c0-0.4,0.7-1.2,1.1-1.3c0.5-0.3,1.1-0.5,1.7-0.5c0.3,0,1,0,1,0.4
    c0.1,0.6-1.2,1.9-1.6,2.3c-0.7,0.6-1.8,1-2.7,1.5c-1.2,0.7-1.7,1.4-2.2,2.5c-0.3,0.6-0.6,1.3-0.9,2c-0.6,1.8-1.2,3.2-2.5,4.8
    c-0.6,0.7-1.4,1.4-2,2.1c-0.4,0.5-0.7,1.2-1,1.8c-0.2,0.5-0.3,1.2-0.5,1.7l-0.2,0.5l-0.1-0.5C8.6,35,9,34.1,9.2,33.5
    c0.1-0.5,0.2-1.2,0.5-1.7c0.2-0.4,0.6-0.9,0.9-1.3c1.1-1.6,0.7-3.3,1.6-4.9c0.4-0.7,1.1-1.4,1.6-2.1c0.5-0.7,1.2-1.4,1.9-1.9
    c1-0.7,2-1.3,3.1-1.8c0.4-0.2,0.9-0.4,1.2-0.6c0.4-0.2,1.4-1.2,1.5-1.6c0-0.1,0-0.1,0-0.2c-0.2-0.3-1,0-1.2,0.1
    c-0.1,0.1-0.7,0.4-0.6,0.6c0,0.1,0.2,0,0.2,0c0.1,0,0.2,0,0.2-0.1c0.1,0,0.4-0.2,0.5,0C20.6,18.1,20.5,18.1,20.4,18.2L20.4,18.2
    L20.4,18.2L20.4,18.2z"/>
  <path fill="#757575" d="M56.7,5.2c-0.3,0-0.5,0.2-0.5,0.5c0,0.1,0.1,0.2,0.1,0.3c-2.7,1.8-4.2,2.8-4.3,2.8
    c-0.2-0.1,1.1-3.9,1.4-4.6c0.1,0,0.2,0.1,0.3,0.1c0.3,0,0.5-0.2,0.5-0.5s-0.2-0.6-0.5-0.6s-0.6,0.2-0.6,0.6c0,0.1,0.1,0.3,0.2,0.4
    c-0.7,1-3.7,4.4-3.8,3.3c0-0.1,0-0.2,0-0.2c0-0.9,0-1.8,0.1-2.7c0,0,0,0,0-0.1l0,0c0-0.4,0-0.7,0.1-1l0,0c0.3,0,0.5-0.2,0.5-0.5
    S50,2.6,49.7,2.6s-0.5,0.2-0.5,0.5c0,0.2,0.1,0.4,0.3,0.5l-0.5,1.3V5c0,0-1.2,2.7-1.7,2.6s-1.5-5.3-1.8-6.5
    c0.2-0.1,0.4-0.3,0.4-0.5c0-0.3-0.2-0.5-0.5-0.5s-0.5,0.2-0.5,0.5s0.2,0.5,0.4,0.5c-0.2,1.2-1.3,6.4-1.8,6.5
    c-0.5,0-1.7-2.6-1.7-2.6V4.9l-0.5-1.3c0.2-0.1,0.3-0.3,0.3-0.5c0-0.3-0.2-0.5-0.5-0.5s-0.6,0.2-0.6,0.5s0.2,0.5,0.6,0.5l0,0
    c0,0.2,0,0.6,0.1,1l0,0v0.1c0,0.7,0.1,1.8,0.1,2.7c0,0.1,0,0.2,0,0.2c-0.1,1.2-3.1-2.3-3.8-3.3c0.1-0.1,0.2-0.2,0.2-0.4
    c0-0.3-0.3-0.6-0.5-0.6c-0.3,0-0.6,0.2-0.6,0.6c0,0.3,0.2,0.5,0.6,0.5c0.1,0,0.2,0,0.2-0.1c0.2,0.5,1.6,4.5,1.4,4.6
    c-0.1,0-1.6-1-4.3-2.8c0.1-0.1,0.1-0.2,0.1-0.3c0-0.3-0.2-0.5-0.5-0.5s-0.5,0.2-0.5,0.5c0,0.3,0.2,0.5,0.5,0.5c0.1,0,0.2,0,0.3-0.1
    c0.6,0.7,3.2,3.8,3.2,3.8s0.5,1.9,0.5,2c0,0,3.6-1.1,7.4-1.1s7.4,1.1,7.4,1.1c0-0.1,0.5-2,0.5-2s2.6-3.1,3.2-3.8
    c0.1,0.1,0.2,0.1,0.3,0.1c0.3,0,0.5-0.2,0.5-0.5C57.4,5.5,57,5.2,56.7,5.2L56.7,5.2z"/>
  <path fill="#757575" d="M49.6,58.8c-0.2-0.3-0.4-0.6-0.7-0.7c-0.4-0.2-0.9-0.3-1.3-0.3c-0.3,0-0.6,0.1-1,0.2
    c-0.2,0.1-0.3,0.3-0.3,0.5c0,0.3,0.2,0.5,0.5,0.6c0.3,0.1,0.7,0.2,1.2,0.2c0.3,0,0.6-0.1,1-0.1C49.2,59,49.4,59,49.6,58.8
    L49.6,58.8z"/>
  <path fill="#757575" d="M50.2,60.2c-0.3,0.1-0.7,0.2-1.2,0.2c-0.4,0.1-0.9,0.1-1.3,0.1c-0.7,0-1.6-0.1-2.2-0.4s-1.1-1-1.1-1.7
    c0-0.7,0.4-1.3,1.1-1.6s1.3-0.4,2-0.4c0.7,0,1.4,0.1,2.1,0.4c0.6,0.3,1.2,0.6,1.6,1.2c1.3-0.7,2.3-1.7,3.2-3c1-1.5,1.5-3.1,1.5-4.9
    c0-2.5-0.9-4.6-2.6-6.3c-1.8-1.8-4.2-2.6-6.6-2.6c-1.1,0-2.2,0-3.3,0.2c-1.3,0.2-2.5,0.6-3.5,1.2c-0.7,0.4-1.5,0.9-2.1,1.5
    c-0.5,0.5-1.1,1.3-1.1,2c0,0.1,0,0.2,0,0.3c0,0.3,0,0.6,0.2,0.9c0.1,0.2,0.3,0.3,0.6,0.3c0.2,0,0.4,0,0.5-0.2
    c0.2-0.2,0.3-0.5,0.3-0.7c0-0.2,0.1-0.3,0.3-0.3c0.1,0,0.2,0.1,0.3,0.2c0.3,0.3,0.3,0.7,0.3,1.2c0,0.5-0.2,1.1-0.6,1.5
    c-0.4,0.4-1,0.6-1.5,0.6c-0.7,0-1.3-0.3-1.7-0.9c-0.4-0.5-0.6-1.2-0.6-1.9c0-1.3,0.4-2.3,1.3-3.3c0.7-0.9,1.7-1.6,2.8-2.1
    c1.4-0.9,3-1.4,4.6-1.7c1.5-0.3,3.1-0.4,4.6-0.4c3,0,5.8,0.9,8.1,2.7c2.2,1.8,3.4,4,3.4,6.9c0,2.3-0.7,4.5-2.2,6.4
    c-1.3,1.7-2.9,3-4.8,3.7c0.4,0.6,0.9,1.4,1.3,2c0.4,1,0.9,1.9,1.3,3c0.4,1.1,0.9,2.2,1.4,3.3c0.4,1,1.1,2.1,1.8,2.9
    c0.6,0.6,1.4,1.2,2.3,1.2c0.3,0,0.6-0.1,0.9-0.2c0.2-0.1,0.4-0.3,0.4-0.5c0-0.1,0-0.3,0-0.4c0-0.1-0.1-0.2-0.1-0.2
    c-0.5,0.2-0.6,0.1-0.6-0.1c0-0.1,0.1-0.2,0.2-0.3l0,0l0,0c0.4-0.1,0.9,0.1,1.2,0.3c0.4,0.2,0.6,0.5,0.6,1.1c0,0.6-0.4,1.2-1,1.5
    c-0.6,0.3-1.3,0.4-1.9,0.4c-1.6,0-3.2-0.4-4.6-1.3c-1.3-0.9-2.3-1.9-3.2-3.2c-0.5-0.9-0.9-1.8-1.2-2.8c-0.3-1-0.4-2-0.6-3
    C50.8,62,50.5,61.1,50.2,60.2L50.2,60.2z"/>
  <path fill="#757575" d="M40.4,53.6c-0.1,0-0.3,0.1-0.4,0.1c-1.6,0.5-3.3,0.7-5,0.7c-2.1,0-4.4-0.3-6.1-1.6
    c-1.5-1.2-2.2-2.7-2.5-4.5c-0.1-1.1,0-2.1,0.4-3.2c0.3-1,0.9-1.9,1.5-2.8c0.6-0.9,1.4-1.6,2.1-2.2s1.6-1.2,2.3-1.7
    c0.6-0.4,1.4-0.9,2.1-1.1c0.3-0.1,0.6-0.2,1-0.3c-0.3-0.1-0.5-0.2-0.9-0.4c-0.5-0.3-1-0.6-1.5-1c-0.3-0.4-0.7-1-1.1-1.5
    c-0.4-0.6-0.6-1.3-0.6-2c-0.1-1.3,0.1-2.6,0.7-3.7c0.6-1.3,1.6-2.2,2.8-3.1c1.3-1,2.7-1.6,4.2-2c1.6-0.5,3.2-0.7,4.9-0.7
    c0.4,0,0.9,0,1.3,0.1c0.4,0.1,0.9,0.2,1.2,0.4c0.3,0.2,0.6,0.4,1,0.7s0.4,0.6,0.4,1.1s0,0.9-0.1,1.3s-0.3,0.7-0.6,1
    c-0.2,0.3-0.5,0.5-0.9,0.7c-0.3,0.2-0.6,0.3-1,0.4h-0.1l-0.5-0.2l0.1-0.1c0.2-0.2,0.4-0.5,0.4-1c0-0.2,0-0.5,0-0.7
    c-0.1-0.6-0.5-1-1-1.3c-0.7-0.4-1.8-0.5-2.7-0.5c-1.1,0-2.2,0.1-3.2,0.5c-0.9,0.3-1.6,0.9-2.2,1.5c-0.5,0.6-1,1.3-1.3,2
    c-0.2,0.7-0.3,1.5-0.2,2.2c0.1,1,0.4,1.9,1.2,2.7c0.6,0.6,1.3,1.2,2.1,1.5c0.6,0.3,1.4,0.6,2,0.9c0.3,0.1,1.1,0.3,1.1,0.7
    c0,0.4-0.1,0.7-0.4,1.1s-0.7,0.5-1.2,0.6l0,0l0,0c-1.2,0-2.3,0.2-3.5,0.5c-1.2,0.3-2.1,0.9-3.1,1.6c-0.9,0.7-1.6,1.6-2,2.7
    c-0.5,1.2-0.6,2.5-0.5,3.7c0.1,0.9,0.2,1.6,0.5,2.3c0.3,0.7,0.7,1.4,1.3,1.9c0.5,0.5,1.3,1,2,1.3c0.9,0.3,1.8,0.4,2.8,0.4
    c1.2,0,2.2-0.1,3.4-0.4v-4.5c0-0.3-0.1-0.5-0.3-0.7c-0.1-0.1-0.4-0.2-0.6-0.3c-0.1-0.1-0.3-0.2-0.3-0.3c0-0.2,0.2-0.3,0.3-0.4l0,0
    l0,0c0.3-0.2,0.7-0.4,1.1-0.5c0.3-0.2,0.6-0.4,1-0.5c0.6-0.4,1.2-0.9,1.8-1.3c0.2-0.1,0.5-0.4,0.7-0.5c0.2-0.1,0.3-0.1,0.4,0.1l0,0
    l0,0c0.1,0.1,0.1,0.3,0,0.4l0,0l0,0c-0.3,0.5-0.5,1.1-0.7,1.6c-0.2,0.4-0.2,0.7-0.2,1.2v4.9c0.4-0.2,0.9-0.4,1.3-0.6
    c1-0.5,1.9-1.1,2.8-1.7c0.5-0.4,1.2-0.9,1.7-1.3l0.1-0.1l0.7,0.9l-0.1,0.1c-0.6,0.5-1.4,1.2-2.1,1.6c-1.1,0.7-2.2,1.4-3.4,2
    c-0.3,0.1-0.5,0.3-0.9,0.4v13.9c0,0.2,0.3,0.5,0.5,0.7c0.2,0.2,0.7,0.5,0.9,0.7c0,0.1,0.1,0.1,0.1,0.2v0.1c0,0.3-0.2,0.4-0.5,0.4
    c-0.4,0-0.9,0-1.2-0.1c-0.4,0-1-0.1-1.4-0.2c-0.6,0-1.3,0-1.8,0.1c-0.2,0-0.5,0-0.7,0c-0.2,0-0.5-0.1-0.5-0.4c0-0.1,0-0.2,0.1-0.2
    c0.1-0.2,0.7-0.6,0.9-0.7c0.2-0.1,0.5-0.4,0.5-0.7V53.6H40.4z"/>
  <path fill="#757575" d="M48.2,117.8c0,0.1,0,0.2,0,0.4c0.5,0.1,1.4-1.1,1-1.6c-0.4-0.4-1.4,0.2-1.7,0.4c-0.1,0.1-0.1,0.1-0.2,0.2
    c-0.4,0.5-0.5,0.5-0.5,1.1c-0.1,2.7-0.9,2.5-1.1,2.5c-0.3,0,0.2,0,0.3-1.2c0.1-1.1,0.1-1.9,1-2.8c0.1-0.2,0.3-0.3,0.5-0.4
    c0.4-0.3,1.6-0.9,2.1-0.3c0.7,0.9-0.1,2.2-0.7,2.7c-0.2,0.1-0.7,0.3-1.1,0c-0.5-0.5,0.3-2,1-1.6l0.1,0.1l-0.1,0.1
    C48.5,117.5,48.3,117.5,48.2,117.8L48.2,117.8z"/>
  <path fill="#757575" d="M45.3,116.2L45.3,116.2L45.3,116.2L45.3,116.2c-0.3,0.4-0.5,1.3-0.5,2.1c0,0.6,0.2,0.7,0.3,1.4
    c0.1,0.6,0.1,1.4,0.1,2v0.1l0,0l0,0l0,0l0,0v-0.1c0.1-0.6,0-1.4,0.1-2c0.1-0.6,0.3-0.7,0.3-1.4C45.9,117.4,45.6,116.6,45.3,116.2
    L45.3,116.2L45.3,116.2z"/>
  <path fill="#757575" d="M70.5,104.1c0.2-0.1,0.3-0.2,0.5-0.3c0.2-0.1,0.3-0.2,0.5-0.2c0.4-0.1,0.7-0.2,1.1-0.3
    c1-0.4,1.3-1.2,2.7-1.3c0.2,0,0.4,0.1,0.7,0c-0.1-0.1-0.3-0.1-0.4-0.1c-1.1-0.3-2.1-1.2-3.3-0.2c-0.4,0.4-0.9,1-1.3,1.4
    c-0.2,0.2-0.3,0.3-0.5,0.5c-0.3,0.4-0.6,0.9-0.9,1.5l0,0C69.9,104.8,70.2,104.4,70.5,104.1L70.5,104.1z"/>
  <path fill="#757575" d="M51.4,107.5c0.3,0,2.9,0.1,1.6-0.5c-0.3-0.2-0.6-0.4-1-0.6c-0.7-0.5-1.7-1-2.5-1c-0.5,0-1.1,0-1.6-0.2
    c0.1,0.1,0.5,0.4,0.9,0.7C49.6,106.8,50.3,107.4,51.4,107.5L51.4,107.5z"/>
  <path fill="#757575" d="M68.7,103.1c-0.1,0-0.2,0.1-0.3,0.1c-0.3-0.5,0.7-1.6,1.3-1.3c0.5,0.2,0.2,1.4,0,1.8c0,0.1-0.1,0.1-0.1,0.2
    c-0.4,0.5-1.1,0.9-1.7,1.1c-1.1,0.3-2.1,0.2-3.4,0.3c-0.6,0.1-1.3,0.2-1.8,0.5c-0.6,0.4-1.3,1-2,1.4c-0.6,0.5-1.7,1.4-2.2,2
    c-0.9,1-1.5,1.9-2.5,2.9c-1.4,1.3-2.8,1.3-4.3,2c-0.9,0.3-1.8,0.6-2.5,1c-0.2,0.1-0.3,0.1-0.5,0.2c0.2,0,0.4,0.1,0.6,0.1
    c0.7,0,1.4-0.3,2.1-0.4c0.3-0.1,0.9-0.1,1.2-0.2c0.4-0.1,0.9-0.3,1.3-0.5c0.5-0.2,1-0.4,1.5-0.6c0.7-0.4,1.8-1.3,2.5-1.9
    c1-1,1.7-1.9,2.6-2.7c0.7-0.6,1.9-1.1,2.8-1.5c0.6-0.3,1.2-0.7,1.6-1c0.6-0.3,1.3-0.5,1.9-0.6c1.4-0.2,2.5-0.3,3.3-1.6
    c0.1-0.2,0.2-0.4,0.3-0.6c0.2-0.5,0.4-1.8-0.2-2.1c-1-0.5-2.1,0.6-2.5,1.4c-0.1,0.2-0.1,0.9,0.2,1.1c0.6,0.4,1.8-0.7,1.3-1.3
    l-0.1-0.1l-0.1,0.1C68.8,102.7,68.9,102.9,68.7,103.1L68.7,103.1z"/>
  <path fill="#757575" d="M64.7,104.5c0.3-0.3,0.4-0.6,0.6-1c0.2-0.4,0.6-1.5,1-1.8c0,0,0,0,0-0.1c0,0,0,0-0.1,0
    c-0.4,0.2-1.2,0.9-1.6,1.1c-0.5,0.3-0.9,0.6-1.2,1c-0.7,0.6-1.4,1.4-2.1,2C62.2,105.5,64.4,104.9,64.7,104.5L64.7,104.5z"/>
  <path fill="#757575" d="M20.2,104.1c-0.2-0.1-0.3-0.2-0.5-0.3c-0.2-0.1-0.3-0.2-0.5-0.2c-0.4-0.1-0.7-0.2-1.1-0.3
    c-1-0.4-1.3-1.2-2.7-1.3c-0.2,0-0.4,0.1-0.7,0c0.1-0.1,0.3-0.1,0.4-0.1c1.1-0.3,2.1-1.2,3.3-0.2c0.4,0.4,0.9,1,1.3,1.4
    c0.2,0.2,0.3,0.3,0.5,0.5c0.3,0.4,0.6,0.9,0.9,1.5l0,0C20.7,104.8,20.5,104.4,20.2,104.1L20.2,104.1z"/>
  <path fill="#757575" d="M39.2,107.5c-0.3,0-2.9,0.1-1.6-0.5c0.3-0.2,0.6-0.4,1-0.6c0.7-0.5,1.7-1,2.5-1c0.5,0,1.1,0,1.6-0.2
    c-0.1,0.1-0.5,0.4-0.9,0.7C41.1,106.8,40.3,107.4,39.2,107.5L39.2,107.5z"/>
  <path fill="#757575" d="M33.5,108c0.2,0.6,0.5,1,1.3,1.5c0.6,0.4,1.3,0.5,2,0.7c0.7,0.3,1.4,0.5,2.1,1H39V111
    c-1.4-0.6-3.9-2.6-4.2-4.6c-0.1-0.4-0.1-0.9-0.1-1.3c0.1-0.1,0.2-0.1,0.2-0.2l0,0c0,0.2,0,0.4,0,0.7c0.1,1.5,1.1,2.6,2.9,3
    c1.2,0.1,2.3-0.3,3-1.6c-1.4,1.3-3.8,0.5-4.3-0.3c-0.9-1.8,0.4-5.1,4.6-4.2c1.2,0.4,2.5,2.3,2.6,4.4h-0.1c-0.4,0-0.7,0.3-0.7,0.7
    v0.3l0,0l0,0l0,0l0,0l0,0l0,0l0,0l0,0l0,0l0,0l0,0l0,0l0,0l0,0l0,0l0,0l0,0l0,0l0,0l0,0l0,0l0,0l0,0l0,0l0,0l0,0l0,0l0,0l0,0l0,0
    l0,0l0,0l0,0l0,0l0,0l0,0l0,0l0,0l0,0l0,0l0,0l0,0l0,0l0,0l0,0l0,0l0,0l0,0l0,0l0,0l0,0l0,0l0,0l0,0l0,0l0,0l0,0l0,0l0,0l0,0l0,0
    l0,0l0,0l0,0l0,0l0,0l0,0l0,0l0,0l0,0l0,0l0,0l0,0l0,0l0,0l0,0l0,0l0,0l0,0l0,0l0,0l0,0l0,0l0,0l0,0l0,0l0,0l0,0l0,0l0,0l0,0l0,0
    l0,0l0,0l0,0l0,0l0,0l0,0l0,0l0,0l0,0l0,0l0,0l0,0l0,0l0,0l0,0l0,0l0,0l0,0l0,0l0,0l0,0l0,0l0,0l0,0l0,0l0,0l0,0l0,0l0,0l0,0l0,0
    l0,0c-0.1,0.5-0.2,1-0.4,1.3c-1.9-1.2-4.6-1.5-5.8-0.5c1-0.5,3.2-0.3,5.2,1.2c-0.1,0.1-0.3,0.3-0.4,0.4c-2,2-4.6,0.6-7.6-0.7
    c2.7,3.4,5.9,3.8,7.7,3c0.7-0.4,1.3-1,1.7-1.6c0.7,0.9,0.9,1.6,0.4,2.2c-0.6,0.9-1.8,0.9-1.3-0.6c-0.5-0.3-1.2-0.1-1.2,0.7
    c0.1,0.7,0.5,1.4,1.1,1.6c1.1,0.5,2-0.4,2.3-1.6c0.2-1.3-0.2-2.3-1-3.2c0.1-0.3,0.2-0.6,0.3-1c0.1-0.4,0.2-0.9,0.3-1.3h0.9
    c0.1,0.4,0.2,0.9,0.3,1.3c0.1,0.3,0.2,0.7,0.3,1c-0.7,0.9-1.2,1.9-1,3.2c0.3,1.2,1.3,2.1,2.3,1.6c0.5-0.2,1-1,1.1-1.6
    c0.1-0.7-0.6-1.1-1.2-0.7c0.5,1.5-0.6,1.5-1.3,0.6c-0.4-0.6-0.3-1.4,0.4-2.2c0.4,0.6,1,1.1,1.7,1.6c1.8,0.9,5,0.3,7.7-3
    c-3,1.4-5.5,2.8-7.6,0.7c-0.2-0.1-0.3-0.3-0.4-0.4c1.9-1.5,4.3-1.7,5.2-1.2c-1.1-1-3.7-0.6-5.8,0.5c-0.2-0.3-0.3-0.6-0.4-1.3l0,0
    l0,0l0,0l0,0l0,0l0,0l0,0l0,0l0,0l0,0l0,0l0,0l0,0l0,0l0,0l0,0l0,0l0,0l0,0l0,0l0,0l0,0l0,0l0,0l0,0l0,0l0,0l0,0l0,0l0,0l0,0l0,0
    l0,0l0,0l0,0l0,0l0,0l0,0l0,0l0,0l0,0l0,0l0,0l0,0l0,0l0,0l0,0l0,0l0,0l0,0l0,0l0,0l0,0l0,0l0,0l0,0l0,0l0,0l0,0l0,0l0,0l0,0l0,0
    l0,0l0,0l0,0l0,0l0,0l0,0l0,0l0,0l0,0l0,0l0,0l0,0l0,0l0,0l0,0l0,0l0,0l0,0l0,0l0,0l0,0l0,0l0,0l0,0l0,0l0,0l0,0l0,0l0,0l0,0l0,0
    l0,0l0,0l0,0l0,0l0,0l0,0l0,0l0,0l0,0l0,0l0,0l0,0l0,0l0,0l0,0l0,0l0,0l0,0l0,0l0,0l0,0l0,0l0,0l0,0l0,0l0,0l0,0l0,0v-0.3
    c0-0.4-0.3-0.7-0.7-0.7h-0.1c0.1-2,1.3-3.9,2.6-4.4c4.2-1,5.4,2.5,4.6,4.2c-0.4,0.9-2.8,1.6-4.3,0.3c0.6,1.2,1.8,1.6,3,1.6
    c1.8-0.4,2.8-1.4,2.9-3c0-0.3,0.1-0.6,0-0.7l0,0c0.1,0.1,0.2,0.2,0.2,0.2c0,0.4,0,0.9-0.1,1.3c-0.3,1.9-2.8,3.9-4.2,4.6v0.1h0.1
    c0.7-0.3,1.4-0.6,2.1-1c0.7-0.3,1.4-0.3,2-0.7c0.6-0.6,1.1-0.9,1.3-1.5c0.1-0.6,0.1-1.2,0.1-1.8c0.4,0.3,0.9,0.5,1.3,0.6
    c0.6,0.1,1.4,0.1,2-0.2s1-1,1.2-1.6c0.2-0.9,0.2-1.9-0.2-2.7c-0.1-0.1-0.2-0.3-0.3-0.4c-0.1-0.2-0.3-0.3-0.5-0.4
    c-0.9-0.6-2.1-0.3-3,0.3c-0.3,0.3-0.6,0.6-0.6,1.2c-0.1,0.5,0.2,1.3,0.6,1.5c0-1,0.9-2.6,2.5-2.1c0.6,0.2,1.1,1,1.1,1.6
    c0.1,0.7-0.2,1.4-0.7,1.8c-1,0.7-2.1,0.4-3.2,0.1h-0.1c-0.3-2.7-1.9-4.6-4.3-4.7c1.6,1.1,3,1.9,3.1,4c-0.1-0.1-0.2-0.2-0.3-0.3
    c-0.1-1.1-0.5-1.6-1.2-2.3c-1.6-1.6-4.8-2.2-6.7-0.7c-0.4,0.3-0.7,0.7-1.1,1.2c-0.2,0.3-0.4,0.6-0.5,1.1c-0.5,1.1-0.6,2.1-0.6,3.2
    h-0.5c0-1.1-0.1-2.1-0.6-3.2c-0.1-0.4-0.3-0.7-0.5-1.1c-0.3-0.4-0.6-0.9-1.1-1.2c-1.8-1.5-5-0.9-6.7,0.7c-0.6,0.6-1.1,1.3-1.2,2.3
    c-0.1,0.1-0.2,0.2-0.3,0.3c0.1-2.1,1.5-3,3.1-4c-2.3,0.2-3.9,2.1-4.3,4.7h-0.1c-1.1,0.4-2.2,0.6-3.2-0.1c-0.5-0.4-0.9-1.1-0.7-1.8
    c0.1-0.6,0.4-1.5,1.1-1.6c1.6-0.4,2.5,1.2,2.5,2.1c0.4-0.2,0.7-1,0.6-1.5c-0.1-0.5-0.3-0.9-0.6-1.2c-0.7-0.6-2-0.9-3-0.3
    c-0.2,0.1-0.3,0.3-0.5,0.4c-0.1,0.1-0.2,0.2-0.3,0.4c-0.4,0.7-0.5,1.8-0.2,2.7c0.2,0.6,0.6,1.3,1.2,1.6c0.6,0.3,1.3,0.3,2,0.2
    c0.4-0.1,0.9-0.3,1.3-0.6C33.4,106.8,33.5,107.3,33.5,108L33.5,108z"/>
  <path fill="#757575" d="M22,103.1c0.1,0,0.2,0.1,0.3,0.1c0.3-0.5-0.7-1.6-1.3-1.3c-0.5,0.2-0.2,1.4,0,1.8c0,0.1,0.1,0.1,0.1,0.2
    c0.4,0.5,1.1,0.9,1.7,1.1c1.1,0.3,2.1,0.2,3.4,0.3c0.6,0.1,1.3,0.2,1.8,0.5c0.6,0.4,1.3,1,2,1.4c0.6,0.5,1.7,1.4,2.2,2
    c0.9,1,1.5,1.9,2.5,2.9c1.4,1.3,2.8,1.3,4.3,2c0.9,0.3,1.8,0.6,2.5,1c0.2,0.1,0.3,0.1,0.5,0.2c-0.2,0-0.4,0.1-0.6,0.1
    c-0.7,0-1.4-0.3-2.1-0.4c-0.3-0.1-0.9-0.1-1.2-0.2c-0.4-0.1-0.9-0.3-1.3-0.5c-0.5-0.2-1-0.4-1.5-0.6c-0.7-0.4-1.8-1.3-2.5-1.9
    c-1-1-1.7-1.9-2.6-2.7c-0.7-0.6-1.9-1.1-2.8-1.5c-0.6-0.3-1.2-0.7-1.6-1c-0.6-0.3-1.3-0.5-1.9-0.6c-1.4-0.2-2.5-0.3-3.3-1.6
    c-0.1-0.2-0.2-0.4-0.3-0.6c-0.2-0.5-0.4-1.8,0.2-2.1c1-0.5,2.1,0.6,2.5,1.4c0.1,0.2,0.1,0.9-0.2,1.1c-0.6,0.4-1.8-0.7-1.3-1.3
    l0.1-0.1l0.1,0.1C21.9,102.7,21.8,102.9,22,103.1L22,103.1z"/>
  <path fill="#757575" d="M25.9,104.5c-0.3-0.3-0.4-0.6-0.6-1c-0.2-0.4-0.6-1.5-1-1.8c0,0,0,0,0-0.1c0,0,0,0,0.1,0
    c0.4,0.2,1.2,0.9,1.6,1.1c0.5,0.3,0.9,0.6,1.2,1c0.7,0.6,1.4,1.4,2.1,2C28.5,105.5,26.2,104.9,25.9,104.5L25.9,104.5z"/>
  <path fill="#757575" d="M42.5,117.8c0,0.1,0,0.2,0,0.4c-0.5,0.1-1.4-1.1-1-1.6c0.4-0.4,1.4,0.2,1.7,0.4c0.1,0.1,0.1,0.1,0.2,0.2
    c0.4,0.5,0.5,0.5,0.5,1.1c0.1,2.7,0.9,2.5,1.1,2.5c0.3,0-0.2,0-0.3-1.2c-0.1-1.1-0.1-1.9-1-2.8c-0.1-0.2-0.3-0.3-0.5-0.4
    c-0.4-0.3-1.6-0.9-2.1-0.3c-0.7,0.9,0.1,2.2,0.7,2.7c0.2,0.1,0.7,0.3,1.1,0c0.5-0.5-0.3-2-1-1.6l-0.1,0.1l0.1,0.1
    C42.1,117.5,42.3,117.5,42.5,117.8L42.5,117.8z"/>
  <path fill="#757575" d="M15.1,89.9H9.2v-0.4c0.1,0,0.2,0,0.3-0.1c0.1-0.1,0.1-0.2,0.1-0.3v-4.8c0-0.1,0-0.2-0.1-0.3
    c-0.1-0.1-0.2-0.1-0.3-0.1v-0.4h5.6v1.5h-0.5c0-0.2-0.1-0.3-0.2-0.4c-0.1-0.1-0.3-0.2-0.5-0.2h-2.3V86h1.7c0.1,0,0.2,0,0.3-0.1
    c0.1-0.1,0.1-0.2,0.1-0.3h0.5v1.8h-0.5c0-0.1,0-0.2-0.1-0.3C13.1,87,13,87,12.9,87h-1.7v2.2h2.5c0.2,0,0.4-0.1,0.6-0.2
    c0.2-0.1,0.2-0.3,0.2-0.5h0.5V89.9L15.1,89.9z M16.1,89.1v-4.8c0-0.1,0-0.2-0.1-0.3c-0.1-0.1-0.2-0.1-0.3-0.1v-0.4h3
    c1,0,1.8,0.3,2.6,1s1.2,1.5,1.2,2.5s-0.3,1.7-1,2.2c-0.5,0.5-1.3,0.7-2.1,0.7h-3.6v-0.4c0.1,0,0.2,0,0.3-0.1
    C16.1,89.3,16.1,89.3,16.1,89.1L16.1,89.1z M17.6,84.4v4.8h1.2c0.5,0,1.1-0.2,1.4-0.6c0.3-0.4,0.5-1,0.5-1.5c0-0.7-0.2-1.3-0.6-1.8
    c-0.4-0.5-1-0.7-1.6-0.7h-0.9V84.4z M28.8,89.9h-5.9v-0.4c0.1,0,0.2,0,0.3-0.1c0.1-0.1,0.1-0.2,0.1-0.3v-4.8c0-0.1,0-0.2-0.1-0.3
    c-0.1-0.1-0.2-0.1-0.3-0.1v-0.4h5.6v1.5h-0.5c0-0.2-0.1-0.3-0.2-0.4c-0.1-0.1-0.3-0.2-0.5-0.2h-2.5V86h1.7c0.1,0,0.2,0,0.3-0.1
    c0.1-0.1,0.1-0.2,0.1-0.3h0.5v1.8H27c0-0.1,0-0.2-0.1-0.3C26.8,87,26.7,87,26.6,87h-1.7v2.2h2.5c0.2,0,0.4-0.1,0.6-0.2
    c0.2-0.1,0.2-0.3,0.2-0.5h0.5v1.5H28.8z M37.4,89.9h-2.3v-0.4c0.1,0,0.2,0,0.2-0.1c0.1-0.1,0.1-0.2,0.1-0.3V89l-0.6-3.7l-1.2,3.2
    h-1.1l-1.3-3.3L30.7,89v0.1c0,0,0,0,0,0.1c0,0.2,0.1,0.3,0.4,0.3v0.4h-1.8v-0.4c0.1,0,0.2-0.1,0.3-0.2c0.1-0.1,0.1-0.2,0.2-0.3
    l0.7-4.7c0,0,0,0,0-0.1c0,0,0,0,0-0.1c0-0.2-0.1-0.3-0.3-0.3v-0.4h2l1.3,3l1.1-3h2.1v0.4c-0.1,0-0.2,0-0.2,0.1
    c-0.1,0.1-0.1,0.2-0.1,0.3v0.1l0.9,4.7c0,0.2,0.1,0.3,0.1,0.4c0.1,0.1,0.1,0.1,0.3,0.1v0.4H37.4z M48.9,89.9h-1.8l-2-2.7h-0.5v1.8
    c0,0.1,0,0.2,0.1,0.3c0.1,0.1,0.2,0.1,0.3,0.1v0.4h-2.5v-0.4c0.1,0,0.2,0,0.3-0.1c0.1-0.1,0.1-0.2,0.1-0.3v-4.8
    c0-0.1,0-0.2-0.1-0.3c-0.1-0.1-0.2-0.1-0.3-0.1v-0.4h3.8c0.5,0,1.1,0.2,1.5,0.5c0.4,0.3,0.6,0.7,0.6,1.3s-0.2,0.9-0.5,1.3
    c-0.3,0.3-0.7,0.5-1.3,0.5l1.6,2c0.1,0.1,0.2,0.2,0.2,0.2c0.1,0.1,0.2,0.2,0.4,0.2V89.9L48.9,89.9z M44.6,84.4v2h1.2
    c0.3,0,0.5-0.1,0.9-0.3c0.2-0.2,0.3-0.4,0.3-0.7s-0.1-0.5-0.2-0.7c-0.2-0.2-0.4-0.3-0.6-0.3h-1.5V84.4z M55.1,89.9h-5.9v-0.4
    c0.1,0,0.2,0,0.3-0.1c0.1-0.1,0.1-0.2,0.1-0.3v-4.8c0-0.1,0-0.2-0.1-0.3c-0.1-0.1-0.2-0.1-0.3-0.1v-0.4h5.6v1.5h-0.5
    c0-0.2-0.1-0.3-0.2-0.4c-0.1-0.1-0.3-0.2-0.5-0.2h-2.5V86h1.7c0.1,0,0.2,0,0.3-0.1c0.1-0.1,0.1-0.2,0.1-0.3h0.5v1.8h-0.5
    c0-0.1,0-0.2-0.1-0.3C53.1,87,53,87,52.9,87h-1.7v2.2h2.5c0.2,0,0.4-0.1,0.6-0.2c0.2-0.1,0.2-0.3,0.2-0.5H55v1.5H55.1z M58.4,90.2
    c-0.6,0-1.3-0.1-1.7-0.4c-0.5-0.3-0.9-0.6-1.1-1.2l1-1L57,88c0,0.1-0.1,0.2-0.1,0.2c0,0.1,0,0.2,0,0.2c0,0.2,0.2,0.4,0.5,0.5
    c0.3,0.1,0.6,0.2,1,0.2c0.3,0,0.6-0.1,1-0.2c0.3-0.1,0.4-0.4,0.4-0.6c0-0.4-0.3-0.7-0.9-1c-0.2-0.1-0.5-0.2-1.1-0.3
    c-0.9-0.2-1.4-0.5-1.7-0.7c-0.2-0.3-0.4-0.6-0.4-1.1c0-0.6,0.3-1.2,0.9-1.5c0.5-0.3,1.2-0.5,1.8-0.5c0.5,0,1.1,0.1,1.5,0.3
    c0.4,0.2,0.7,0.5,1,0.9l-1,0.9l-0.4-0.3c0-0.1,0-0.1,0-0.2c0-0.2-0.1-0.3-0.4-0.4c-0.3-0.1-0.5-0.2-0.7-0.2c-0.3,0-0.6,0.1-0.9,0.2
    c-0.3,0.1-0.4,0.3-0.4,0.6c0,0.2,0.2,0.4,0.5,0.5c0.1,0,0.5,0.2,1.3,0.4c0.9,0.2,1.5,0.5,1.8,1c0.3,0.3,0.4,0.7,0.4,1.2
    c0,0.7-0.3,1.3-0.9,1.6C59.9,90.1,59.3,90.2,58.4,90.2L58.4,90.2z M68.9,86.7c0,1.1-0.3,1.8-1,2.5c-0.6,0.6-1.5,1-2.7,1
    c-1.1,0-1.9-0.3-2.6-1s-1-1.5-1-2.5c0-1.1,0.3-1.8,1-2.5s1.5-1,2.7-1c1.1,0,2,0.3,2.7,1C68.6,84.8,68.9,85.7,68.9,86.7L68.9,86.7z
     M67.2,86.7c0-0.7-0.1-1.4-0.4-1.8c-0.3-0.4-0.9-0.7-1.5-0.7c-0.6,0-1.2,0.2-1.5,0.7c-0.3,0.4-0.4,1.1-0.4,1.8s0.1,1.4,0.4,1.8
    c0.3,0.5,0.9,0.7,1.5,0.7c0.6,0,1.2-0.2,1.5-0.7C67.1,88.1,67.2,87.5,67.2,86.7L67.2,86.7z M75.7,89.9h-1.8l-2-2.7h-0.5v1.8
    c0,0.1,0,0.2,0.1,0.3s0.2,0.1,0.3,0.1v0.4h-2.5v-0.4c0.1,0,0.2,0,0.3-0.1c0.1-0.1,0.1-0.2,0.1-0.3v-4.8c0-0.1,0-0.2-0.1-0.3
    c-0.1-0.1-0.2-0.1-0.3-0.1v-0.4H73c0.5,0,1.1,0.2,1.5,0.5c0.4,0.3,0.6,0.7,0.6,1.3s-0.2,0.9-0.5,1.3c-0.3,0.3-0.7,0.5-1.3,0.5
    l1.6,2c0.1,0.1,0.2,0.2,0.2,0.2c0.1,0.1,0.2,0.2,0.4,0.2v0.4H75.7z M71.3,84.4v2h1.2c0.3,0,0.5-0.1,0.9-0.3
    c0.2-0.2,0.3-0.4,0.3-0.7s-0.1-0.5-0.2-0.7c-0.2-0.2-0.4-0.3-0.6-0.3h-1.5V84.4z M75.7,83.6h5.6V85h-0.5c0-0.2-0.1-0.3-0.2-0.4
    s-0.2-0.2-0.4-0.2h-1v4.8c0,0.1,0,0.2,0.1,0.3c0.1,0.1,0.2,0.1,0.3,0.1v0.4h-2.5v-0.4c0.1,0,0.2,0,0.3-0.1c0.1-0.1,0.1-0.2,0.1-0.3
    v-4.8h-1c-0.1,0-0.3,0.1-0.4,0.2C76.1,84.7,76,84.9,76,85h-0.5v-1.5H75.7z"/>
  <path fill="#757575" d="M16.7,98.5h-2.1V98c0.1,0,0.2,0,0.2-0.1c0.1-0.1,0.1-0.2,0.1-0.3v-0.1l-0.6-3.4L13.1,97h-1L11,94l-0.5,3.4
    v0.1l0,0c0,0.2,0.1,0.3,0.3,0.3v0.4H9.2v-0.4c0.1,0,0.2,0,0.2-0.1c0.1-0.1,0.1-0.2,0.1-0.3l0.6-4.3c0,0,0,0,0-0.1l0,0
    c0-0.2-0.1-0.3-0.3-0.3v-0.4h1.8l1.1,2.7l1-2.7h1.9v0.4c-0.1,0-0.2,0-0.2,0.1c-0.1,0.1-0.1,0.1-0.1,0.2v0.1l0.7,4.2
    c0,0.1,0.1,0.2,0.1,0.3c0.1,0.1,0.1,0.1,0.2,0.1v0.7H16.7z M22.3,98.5h-5.2V98c0.1,0,0.2,0,0.3-0.1c0.1-0.1,0.1-0.2,0.1-0.3v-4.4
    c0-0.1,0-0.2-0.1-0.3c-0.1-0.1-0.2-0.1-0.3-0.1v-0.4h5.1v1.3h-0.5c0-0.2-0.1-0.3-0.2-0.4c-0.1-0.1-0.3-0.1-0.4-0.1h-2.1v1.5h1.5
    c0.1,0,0.2,0,0.3-0.1c0.1-0.1,0.1-0.2,0.1-0.3h0.4v1.6h-0.4c0-0.1,0-0.2-0.1-0.3c-0.1-0.1-0.2-0.1-0.3-0.1h-1.5v2h2.2
    c0.2,0,0.4-0.1,0.5-0.2s0.2-0.2,0.2-0.4h0.5v1.7H22.3z M23.3,97.7v-4.4c0-0.1,0-0.2-0.1-0.3c-0.1-0.1-0.2-0.1-0.3-0.1v-0.4h2.7
    c0.9,0,1.7,0.3,2.3,0.9c0.6,0.6,1.1,1.4,1.1,2.2c0,0.9-0.3,1.5-0.9,2c-0.5,0.4-1.2,0.7-1.9,0.7h-3.3v-0.4c0.1,0,0.2,0,0.3-0.1
    C23.2,97.8,23.3,97.8,23.3,97.7L23.3,97.7z M24.6,93.4v4.3h1.1c0.5,0,1-0.2,1.3-0.5c0.3-0.3,0.5-0.9,0.5-1.4c0-0.6-0.2-1.2-0.5-1.6
    c-0.3-0.4-0.9-0.7-1.5-0.7H24.6L24.6,93.4z M29.4,92.6h2.1V93c-0.1,0-0.2,0-0.3,0.1c-0.1,0.1-0.1,0.2-0.1,0.3v4.4
    c0,0.1,0,0.2,0.1,0.3c0.1,0.1,0.2,0.1,0.3,0.1v0.4h-2.1v-0.4c0.1,0,0.2,0,0.3-0.1c0.1-0.1,0.1-0.2,0.1-0.3v-4.4
    c0-0.1,0-0.2-0.1-0.3C29.7,93,29.5,93,29.4,93V92.6L29.4,92.6z M37.4,93.5l-1,1L36,94.1c0-0.1,0.1-0.1,0.1-0.2v-0.1
    c0-0.2-0.1-0.3-0.2-0.4c-0.2-0.1-0.4-0.1-0.7-0.1c-0.5,0-1,0.2-1.2,0.5c-0.3,0.4-0.4,0.9-0.4,1.5c0,0.7,0.2,1.3,0.5,1.7
    c0.4,0.5,1,0.7,1.6,0.7c0.2,0,0.4-0.1,0.6-0.2c0.2-0.1,0.3-0.3,0.3-0.4h0.5v1.3c-0.2,0.1-0.5,0.1-0.7,0.2c-0.3,0-0.6,0.1-1,0.1
    c-1.1,0-1.9-0.3-2.6-1s-1-1.4-1-2.5c0-0.9,0.3-1.5,0.9-2s1.3-0.7,2.2-0.7c0.5,0,1,0.1,1.4,0.2C36.9,92.8,37.2,93.1,37.4,93.5
    L37.4,93.5z M37.5,98.5V98c0.1,0,0.2-0.1,0.2-0.1c0.1-0.1,0.1-0.2,0.2-0.3l1.8-5h1.5l2,5c0,0.1,0.1,0.2,0.2,0.3
    c0.1,0.1,0.2,0.1,0.3,0.1v0.4h-2.1V98c0.2,0,0.2-0.1,0.2-0.2c0,0,0-0.1,0-0.2l-0.4-1.2h-2L39,97.6c0,0.1,0,0.1,0,0.2
    c0,0.2,0.1,0.2,0.3,0.2v0.4H37.5L37.5,98.5z M41.1,95.6l-0.7-1.9l-0.7,1.9H41.1L41.1,95.6z M48.9,98.5H44V98c0.1,0,0.2,0,0.3-0.1
    c0.1-0.1,0.1-0.2,0.1-0.3v-4.4c0-0.1,0-0.2-0.1-0.3c-0.1-0.1-0.2-0.1-0.3-0.1v-0.4h2.1v0.4c-0.1,0-0.2,0-0.3,0.1
    c-0.1,0.1-0.1,0.2-0.1,0.3v4.3h2c0.2,0,0.3-0.1,0.4-0.2s0.2-0.3,0.2-0.5h0.5V98.5L48.9,98.5z M66.8,98.6c-0.6,0-1.2-0.1-1.6-0.3
    c-0.5-0.2-0.7-0.6-1-1.1l0.9-0.9l0.4,0.3c0,0.1-0.1,0.1-0.1,0.2s0,0.1,0,0.2c0,0.2,0.1,0.4,0.4,0.5c0.3,0.1,0.5,0.2,0.9,0.2
    c0.3,0,0.6-0.1,0.9-0.2c0.3-0.1,0.4-0.3,0.4-0.6s-0.2-0.6-0.7-0.9c-0.2-0.1-0.5-0.2-1-0.3c-0.7-0.2-1.3-0.4-1.5-0.7
    c-0.2-0.2-0.3-0.5-0.3-1c0-0.5,0.3-1.1,0.9-1.4c0.4-0.3,1.1-0.4,1.6-0.4c0.5,0,1,0.1,1.4,0.3c0.4,0.2,0.6,0.4,0.9,0.7l-0.9,0.9
    L68,94c0-0.1,0-0.1,0-0.2c0-0.2-0.1-0.3-0.4-0.4c-0.2-0.1-0.5-0.1-0.7-0.1c-0.3,0-0.5,0-0.7,0.1s-0.4,0.3-0.4,0.5s0.2,0.3,0.5,0.5
    c0.1,0,0.4,0.1,1.2,0.3c0.7,0.2,1.4,0.5,1.6,0.9s0.4,0.6,0.4,1.1c0,0.6-0.3,1.2-0.9,1.5C68.1,98.5,67.6,98.6,66.8,98.6L66.8,98.6z
     M69.9,92.6h3.4c0.4,0,0.9,0.1,1.3,0.4c0.3,0.3,0.5,0.6,0.5,1.2s-0.2,1-0.5,1.3c-0.3,0.3-0.7,0.5-1.3,0.7c-0.4,0.1-1,0.3-1.6,0.4
    v1.1c0,0.1,0,0.2,0.1,0.3c0.1,0.1,0.2,0.1,0.3,0.1v0.4H70v-0.4c0.1,0,0.2,0,0.3-0.1s0.1-0.2,0.1-0.3v-4.4c0-0.1,0-0.2-0.1-0.3
    c-0.1-0.1-0.2-0.1-0.3-0.1v-0.3H69.9z M71.6,93.4v2.6c0.5-0.1,1-0.2,1.3-0.4c0.4-0.3,0.6-0.6,0.6-1.2c0-0.3-0.1-0.5-0.3-0.7
    c-0.2-0.2-0.4-0.2-0.7-0.2L71.6,93.4L71.6,93.4z M75.2,98.5V98c0.1,0,0.2-0.1,0.2-0.1c0.1-0.1,0.1-0.2,0.2-0.3l1.8-5h1.5l2,5
    c0,0.1,0.1,0.2,0.2,0.3c0.1,0.1,0.2,0.1,0.3,0.1v0.4h-2.1V98c0.2,0,0.2-0.1,0.2-0.2c0,0,0-0.1,0-0.2l-0.4-1.2h-2l-0.4,1.2
    c0,0.1,0,0.1,0,0.2c0,0.2,0.1,0.2,0.3,0.2v0.4H75.2L75.2,98.5z M78.7,95.6l-0.7-1.9l-0.7,1.9H78.7L78.7,95.6z M60.1,98.3
    c0,0.1,0,0.2-0.1,0.2s-0.2,0-0.3,0c-0.2,0-0.3,0-0.5,0c-0.5,0-0.9,0-0.9,0c-0.1,0-0.3,0-0.6,0c-0.3,0-0.5,0-0.6,0h-0.1
    c-0.1,0-0.1-0.1-0.1-0.2c0-0.1,0.1-0.2,0.2-0.2c0.1,0,0.2,0,0.2,0c0.1,0,0.1-0.1,0.1-0.2v-0.1c0,0,0-0.1-0.1-0.1l-0.1-0.1
    c-0.3,0.4-0.7,0.6-1.2,0.9c-0.3,0.1-0.6,0.2-1,0.2c-0.5,0-1.1-0.1-1.4-0.4c-0.3-0.3-0.5-0.7-0.5-1.2c0-0.4,0.2-0.9,0.5-1.1
    c0.2-0.2,0.6-0.4,1.4-0.7c-0.2-0.3-0.4-0.5-0.4-0.6c-0.1-0.2-0.2-0.5-0.2-0.7c0-0.4,0.1-0.7,0.4-1c0.3-0.3,0.9-0.4,1.6-0.4
    c0.7,0,1.3,0.1,1.6,0.4c0.2,0.2,0.4,0.4,0.4,0.7s-0.2,0.6-0.5,0.9c-0.2,0.1-0.5,0.3-1.1,0.4l1.2,1.4c0.1-0.1,0.2-0.2,0.3-0.3
    c0.1-0.2,0.2-0.3,0.2-0.4s0-0.2-0.1-0.2c-0.1,0-0.2,0-0.3,0c-0.1,0-0.1,0-0.1,0l-0.1-0.1c0-0.1,0-0.1,0.1-0.1c0,0,0.1,0,0.2,0h1H60
    c0.1,0,0.1,0,0.2,0c0.1,0,0.1,0.1,0.1,0.1c0,0.1,0,0.1-0.1,0.1c0,0-0.1,0-0.2,0c-0.2,0-0.4,0-0.5,0.1c-0.2,0.1-0.4,0.3-0.6,0.7
    l-0.3,0.4l0.6,0.7c0.1,0.2,0.3,0.3,0.4,0.5c0.2,0.2,0.3,0.2,0.5,0.3h0.1C60,98.2,60.1,98.2,60.1,98.3L60.1,98.3z M57,93.6
    c0-0.3-0.1-0.5-0.2-0.6c-0.1-0.2-0.3-0.3-0.5-0.3c-0.1,0-0.3,0-0.4,0.1c-0.1,0.1-0.1,0.2-0.1,0.4c0,0.2,0.2,0.6,0.7,1.3
    c0.2-0.1,0.3-0.2,0.4-0.3C57,94,57,93.8,57,93.6L57,93.6z M56.8,97.3l-1.6-1.9c-0.2,0.1-0.4,0.2-0.5,0.4c-0.1,0.2-0.2,0.4-0.2,0.6
    c0,0.4,0.1,0.7,0.4,1c0.2,0.2,0.5,0.3,0.9,0.3c0.1,0,0.3,0,0.4-0.1C56.5,97.5,56.7,97.4,56.8,97.3L56.8,97.3z"/>
</g>
</svg>
