<?xml version="1.0" encoding="utf-8"?>
<!-- Generator: Adobe Illustrator 18.0.0, SVG Export Plug-In . SVG Version: 6.00 Build 0)  -->
<!DOCTYPE svg PUBLIC "-//W3C//DTD SVG 1.1//EN" "http://www.w3.org/Graphics/SVG/1.1/DTD/svg11.dtd" [
	<!ENTITY ns_extend "http://ns.adobe.com/Extensibility/1.0/">
	<!ENTITY ns_ai "http://ns.adobe.com/AdobeIllustrator/10.0/">
	<!ENTITY ns_graphs "http://ns.adobe.com/Graphs/1.0/">
	<!ENTITY ns_vars "http://ns.adobe.com/Variables/1.0/">
	<!ENTITY ns_imrep "http://ns.adobe.com/ImageReplacement/1.0/">
	<!ENTITY ns_sfw "http://ns.adobe.com/SaveForWeb/1.0/">
	<!ENTITY ns_custom "http://ns.adobe.com/GenericCustomNamespace/1.0/">
	<!ENTITY ns_adobe_xpath "http://ns.adobe.com/XPath/1.0/">
]>
<svg version="1.1" id="Layer_1" xmlns:x="&ns_extend;" xmlns:i="&ns_ai;" xmlns:graph="&ns_graphs;"
	 xmlns="http://www.w3.org/2000/svg" xmlns:xlink="http://www.w3.org/1999/xlink" x="0px" y="0px" viewBox="0 0 244 76"
	 enable-background="new 0 0 244 76" xml:space="preserve">
<metadata>
	<sfw  xmlns="&ns_sfw;">
		<slices></slices>
		<sliceSourceBounds  height="75.2" width="242.6" x="0" y="-75.2" bottomLeftOrigin="true"></sliceSourceBounds>
	</sfw>
</metadata>
<path fill="#222222" d="M224.8,13.7c-10.3,0-17.9,7.8-17.9,17.3c0,9.6,7.4,17.3,17.8,17.3c10.4,0,17.9-7.8,17.9-17.3
	C242.6,21.4,235.2,13.7,224.8,13.7z M224.8,41.6c-5.9,0-10.2-4.8-10.2-10.5c0-5.8,4.1-10.5,10.1-10.5c5.9,0,10.2,4.8,10.2,10.5
	C234.9,36.9,230.8,41.6,224.8,41.6z"/>
<g>
	<path fill="#222222" d="M101,14.3H87.2V48h7.4V37.9h5.6c7.6,0,13.6-4,13.6-11.8C113.9,19.1,109,14.3,101,14.3z M100.5,31.3h-5.9V21
		h5.7c3.7,0,6,1.8,6,5.1C106.4,29.1,104.2,31.3,100.5,31.3z"/>
	<path fill="#222222" d="M139.8,36c4.3-1.6,7.2-5,7.2-10.4c0-3.3-1-5.9-2.9-7.8c-2.2-2.2-5.5-3.4-9.8-3.4h-15.4V48h7.4V37.3h5.7
		l7.3,10.8h8.7L139.8,36z M133.9,30.7h-7.5V21h7.4c3.6,0,5.8,1.6,5.8,4.8C139.5,28.8,137.5,30.7,133.9,30.7z"/>
	<polygon fill="#222222" points="194,48 201.3,48 201.3,14.3 193.4,14.3 184.5,28.6 175.6,14.3 167.6,14.3 167.6,48 174.9,48 
		174.9,26.2 184.3,40.4 184.5,40.4 194,26 	"/>
	<linearGradient id="SVGID_1_" gradientUnits="userSpaceOnUse" x1="138.5135" y1="200.1663" x2="129.0664" y2="184.8286">
		<stop  offset="0" style="stop-color:#8C1C55"/>
		<stop  offset="1" style="stop-color:#D61A63"/>
	</linearGradient>
	<path fill="url(#SVGID_1_)" d="M46.9,61.8h-8.6l13.3,13.4h24.8L60.8,59.5C56.7,61,52,61.8,46.9,61.8z"/>
	<linearGradient id="SVGID_2_" gradientUnits="userSpaceOnUse" x1="29.1398" y1="31.0142" x2="58.4926" y2="26.1624">
		<stop  offset="0" style="stop-color:#8C1C55"/>
		<stop  offset="1" style="stop-color:#D61A63"/>
	</linearGradient>
	<path fill="url(#SVGID_2_)" d="M31.2,55.8h9.3c5.6,0,10.6-0.9,15-2.7c8.8-3.7,14.4-11,14.4-21.8c0-15.3-11.1-24.2-28.4-24.2H9.1
		L25,22.9h15c6.8,0,10.9,3.1,10.9,9c0,5.6-4.1,9.1-10.8,9.1h-9v0l0,0L31.2,55.8z"/>
	<linearGradient id="SVGID_3_" gradientUnits="userSpaceOnUse" x1="20.922" y1="83.9772" x2="22.6201" y2="58.5067">
		<stop  offset="0" style="stop-color:#8C1C55"/>
		<stop  offset="1" style="stop-color:#D61A63"/>
	</linearGradient>
	<polygon fill="url(#SVGID_3_)" points="31.1,55.8 31.1,41 12.9,59.1 12.9,75.2 31.2,75.2 31.2,55.8 	"/>
	<linearGradient id="SVGID_4_" gradientUnits="userSpaceOnUse" x1="31.9876" y1="48.2436" x2="61.3405" y2="43.3919">
		<stop  offset="0" style="stop-color:#8C1C55"/>
		<stop  offset="1" style="stop-color:#D61A63"/>
	</linearGradient>
	<polygon fill="url(#SVGID_4_)" points="31.2,55.8 31.1,41 31.1,41 31.1,55.8 	"/>
	<linearGradient id="SVGID_5_" gradientUnits="userSpaceOnUse" x1="28.7395" y1="84.4984" x2="30.4375" y2="59.0279">
		<stop  offset="0" style="stop-color:#8C1C55"/>
		<stop  offset="1" style="stop-color:#D61A63"/>
	</linearGradient>
	<polygon fill="url(#SVGID_5_)" points="31.2,55.8 31.1,41 31.1,41 31.1,55.8 	"/>
	<linearGradient id="SVGID_6_" gradientUnits="userSpaceOnUse" x1="-217.5621" y1="-431.4347" x2="-213.6449" y2="-423.1106">
		<stop  offset="0" style="stop-color:#8C1C55"/>
		<stop  offset="1" style="stop-color:#D61A63"/>
	</linearGradient>
	<polygon fill="url(#SVGID_6_)" points="0,62.5 7.3,55.3 7.3,14.8 0,7.6 	"/>
	<linearGradient id="SVGID_7_" gradientUnits="userSpaceOnUse" x1="-135.1598" y1="-274.416" x2="-132.5603" y2="-268.892">
		<stop  offset="0" style="stop-color:#8C1C55"/>
		<stop  offset="1" style="stop-color:#D61A63"/>
	</linearGradient>
	<polygon fill="url(#SVGID_7_)" points="13.4,20.8 9.4,16.8 9.4,53.3 13.4,49.3 	"/>
	<linearGradient id="SVGID_8_" gradientUnits="userSpaceOnUse" x1="-81.2085" y1="-172.4335" x2="-79.4663" y2="-168.7312">
		<stop  offset="0" style="stop-color:#8C1C55"/>
		<stop  offset="1" style="stop-color:#D61A63"/>
	</linearGradient>
	<polygon fill="url(#SVGID_8_)" points="15.5,22.8 15.5,47.3 19,43.9 19,26.3 	"/>
	<linearGradient id="SVGID_9_" gradientUnits="userSpaceOnUse" x1="-32.1579" y1="-79.4477" x2="-31.197" y2="-77.4056">
		<stop  offset="0" style="stop-color:#8C1C55"/>
		<stop  offset="1" style="stop-color:#D61A63"/>
	</linearGradient>
	<polygon fill="url(#SVGID_9_)" points="21.1,28.3 21.1,41.8 23.5,39.4 23.5,30.7 	"/>
	<linearGradient id="SVGID_10_" gradientUnits="userSpaceOnUse" x1="7.8532" y1="-3.9683" x2="8.1795" y2="-3.2749">
		<stop  offset="0" style="stop-color:#8C1C55"/>
		<stop  offset="1" style="stop-color:#D61A63"/>
	</linearGradient>
	<polygon fill="url(#SVGID_10_)" points="25.6,37.4 27.9,35.1 25.6,32.8 	"/>
	<path fill="#222222" d="M159.4,15.2c-2,0.9-4,1.8-6.1,2.6c-0.1,0-0.2,0.1-0.3,0.1v30h7.4V14.7C160.1,14.9,159.8,15.1,159.4,15.2z"
		/>
	<linearGradient id="SVGID_11_" gradientUnits="userSpaceOnUse" x1="152.2244" y1="11.7997" x2="158.9254" y2="4.7744">
		<stop  offset="0" style="stop-color:#8C1C55"/>
		<stop  offset="1" style="stop-color:#D61A63"/>
	</linearGradient>
	<path fill="url(#SVGID_11_)" d="M158.4,1.6c-1.7,1.3-3.5,2.5-5.3,3.7v6.5c0,0,0,0,0,0c0.1,0,0.2-0.1,0.3-0.1
		c2.1-0.8,4.1-1.7,6.1-2.6c0.4-0.2,0.7-0.3,1.1-0.5c0,0,0,0,0,0c0,0,0,0,0,0c0-1,0-6.1,0-8.7C159.8,0.6,159.1,1.1,158.4,1.6z"/>
</g>
<g>
	<path fill="#222222" d="M89.7,69.9V57.8h-1.5v13.5h9.1v-1.4H89.7z"/>
	<path fill="#222222" d="M123.3,57.8v13.5h1.5V57.8H123.3z"/>
	<path fill="#222222" d="M158.1,64.1v1.4h4.1v3.4c-0.9,0.8-2.3,1.3-3.9,1.3c-3.3,0-5.3-2.4-5.3-5.6c0-3,2.1-5.6,5.1-5.6
		c1.9,0,3.1,0.6,4.1,1.5l1-1.2c-1.4-1.1-2.8-1.8-5-1.8c-4,0-6.8,3.3-6.8,7c0,3.9,2.6,7,6.9,7c2.3,0,4.2-0.9,5.4-2.1v-5.4H158.1z"/>
	<path fill="#222222" d="M199.5,57.8v6h-7.8v-6h-1.5v13.5h1.5v-6.1h7.8v6.1h1.5V57.8H199.5z"/>
	<path fill="#222222" d="M227,57.8v1.4h4.5v12.1h1.6V59.2h4.5v-1.4H227z"/>
</g>
</svg>
