<?xml version="1.0" encoding="utf-8"?>
<!-- Generator: Adobe Illustrator 18.0.0, SVG Export Plug-In . SVG Version: 6.00 Build 0)  -->
<!DOCTYPE svg PUBLIC "-//W3C//DTD SVG 1.1//EN" "http://www.w3.org/Graphics/SVG/1.1/DTD/svg11.dtd" [
	<!ENTITY ns_extend "http://ns.adobe.com/Extensibility/1.0/">
	<!ENTITY ns_ai "http://ns.adobe.com/AdobeIllustrator/10.0/">
	<!ENTITY ns_graphs "http://ns.adobe.com/Graphs/1.0/">
	<!ENTITY ns_vars "http://ns.adobe.com/Variables/1.0/">
	<!ENTITY ns_imrep "http://ns.adobe.com/ImageReplacement/1.0/">
	<!ENTITY ns_sfw "http://ns.adobe.com/SaveForWeb/1.0/">
	<!ENTITY ns_custom "http://ns.adobe.com/GenericCustomNamespace/1.0/">
	<!ENTITY ns_adobe_xpath "http://ns.adobe.com/XPath/1.0/">
]>
<svg version="1.1" id="Layer_1" xmlns:x="&ns_extend;" xmlns:i="&ns_ai;" xmlns:graph="&ns_graphs;"
	 xmlns="http://www.w3.org/2000/svg" xmlns:xlink="http://www.w3.org/1999/xlink" x="0px" y="0px" viewBox="0 7 40 26"
	 enable-background="new 0 7 40 26" xml:space="preserve">
<metadata>
	<sfw  xmlns="&ns_sfw;">
		<slices></slices>
		<sliceSourceBounds  height="26" width="40" x="0" y="7" bottomLeftOrigin="true"></sliceSourceBounds>
	</sfw>
</metadata>
<polygon fill="#C2185B" points="27.7,33 0,33 12.3,7 40,7 "/>
<path fill="#F5F5F5" d="M21.9,13.6c-1.5,0.5-2.4,1.9-2.2,3.4v0.6l-0.6-0.1c-2.1-0.3-3.9-1.2-5.5-2.7l-0.8-0.8l-0.2,0.6
	c-0.4,1.3-0.1,2.6,0.7,3.4c0.5,0.5,0.3,0.6-0.4,0.3c-0.3-0.1-0.5-0.1-0.6-0.1c-0.1,0.1,0.2,1.1,0.4,1.5c0.3,0.6,0.9,1.1,1.6,1.5
	l0.6,0.3h-0.7c-0.6,0-0.7,0-0.6,0.3c0.2,0.8,1.1,1.5,2.2,1.9l0.7,0.2L16,24.2c-0.9,0.6-2,0.8-3.1,0.8c-0.5,0-0.9,0.1-0.9,0.1
	c0,0.1,1.4,0.8,2.2,1c2.4,0.8,5.4,0.4,7.5-0.8c1.5-0.9,3.1-2.7,3.8-4.5c0.4-0.9,0.8-2.7,0.8-3.5c0-0.6,0-0.6,0.7-1.3
	c0.3-0.3,0.8-0.8,0.8-0.9c0.1-0.2,0.1-0.2-0.5,0c-1,0.3-1.1,0.3-0.6-0.2c0.3-0.3,0.8-1,0.8-1.3c0,0-0.1,0-0.3,0.1
	c-0.2,0.1-0.7,0.3-1,0.4l-0.8,0.1L24.9,14c-0.3-0.2-0.8-0.4-1-0.5C23.3,13.4,22.4,13.4,21.9,13.6z"/>
</svg>
