<?xml version="1.0" encoding="utf-8"?>
<!-- Generator: Adobe Illustrator 18.0.0, SVG Export Plug-In . SVG Version: 6.00 Build 0)  -->
<!DOCTYPE svg PUBLIC "-//W3C//DTD SVG 1.1//EN" "http://www.w3.org/Graphics/SVG/1.1/DTD/svg11.dtd" [
	<!ENTITY ns_extend "http://ns.adobe.com/Extensibility/1.0/">
	<!ENTITY ns_ai "http://ns.adobe.com/AdobeIllustrator/10.0/">
	<!ENTITY ns_graphs "http://ns.adobe.com/Graphs/1.0/">
	<!ENTITY ns_vars "http://ns.adobe.com/Variables/1.0/">
	<!ENTITY ns_imrep "http://ns.adobe.com/ImageReplacement/1.0/">
	<!ENTITY ns_sfw "http://ns.adobe.com/SaveForWeb/1.0/">
	<!ENTITY ns_custom "http://ns.adobe.com/GenericCustomNamespace/1.0/">
	<!ENTITY ns_adobe_xpath "http://ns.adobe.com/XPath/1.0/">
]>
<svg version="1.1" id="Layer_1" xmlns:x="&ns_extend;" xmlns:i="&ns_ai;" xmlns:graph="&ns_graphs;"
	 xmlns="http://www.w3.org/2000/svg" xmlns:xlink="http://www.w3.org/1999/xlink" x="0px" y="0px" viewBox="0 0 40 26"
	 enable-background="new 0 0 40 26" xml:space="preserve">
<metadata>
	<sfw  xmlns="&ns_sfw;">
		<slices></slices>
		<sliceSourceBounds  height="26" width="40" x="0" y="-33" bottomLeftOrigin="true"></sliceSourceBounds>
	</sfw>
</metadata>
<polygon fill="#C2185B" points="27.7,26 0,26 12.3,0 40,0 "/>
<path fill="#F5F5F5" d="M20.4,5.2c-4.2,0-6.4,3-6.4,5.6c0,1.5,0.6,2.9,1.8,3.4c0.2,0.1,0.4,0,0.4-0.2c0-0.2,0.1-0.5,0.2-0.7
	c0.1-0.2,0-0.3-0.1-0.5c-0.4-0.4-0.6-1-0.6-1.7c0-2.3,1.7-4.3,4.4-4.3c2.4,0,3.7,1.5,3.7,3.4c0,2.6-1.1,4.7-2.8,4.7
	c-0.9,0-1.6-0.8-1.4-1.7c0.3-1.1,0.8-2.3,0.8-3.2c0-0.7-0.4-1.3-1.2-1.3c-1,0-1.7,1-1.7,2.3c0,0.8,0.3,1.4,0.3,1.4s-1,4.1-1.1,4.9
	c-0.3,1.4-0.1,3.2,0,3.4c0,0.1,0.2,0.1,0.2,0.1c0.1-0.1,1.2-1.5,1.6-2.9c0.1-0.4,0.6-2.4,0.6-2.4c0.3,0.6,1.2,1.1,2.2,1.1
	c2.9,0,4.8-2.6,4.8-6.1C26,7.7,23.8,5.2,20.4,5.2z"/>
</svg>
