<?xml version="1.0" encoding="utf-8"?>
<!-- Generator: Adobe Illustrator 18.0.0, SVG Export Plug-In . SVG Version: 6.00 Build 0)  -->
<!DOCTYPE svg PUBLIC "-//W3C//DTD SVG 1.1//EN" "http://www.w3.org/Graphics/SVG/1.1/DTD/svg11.dtd" [
	<!ENTITY ns_extend "http://ns.adobe.com/Extensibility/1.0/">
	<!ENTITY ns_ai "http://ns.adobe.com/AdobeIllustrator/10.0/">
	<!ENTITY ns_graphs "http://ns.adobe.com/Graphs/1.0/">
	<!ENTITY ns_vars "http://ns.adobe.com/Variables/1.0/">
	<!ENTITY ns_imrep "http://ns.adobe.com/ImageReplacement/1.0/">
	<!ENTITY ns_sfw "http://ns.adobe.com/SaveForWeb/1.0/">
	<!ENTITY ns_custom "http://ns.adobe.com/GenericCustomNamespace/1.0/">
	<!ENTITY ns_adobe_xpath "http://ns.adobe.com/XPath/1.0/">
]>
<svg version="1.1" id="Layer_1" xmlns:x="&ns_extend;" xmlns:i="&ns_ai;" xmlns:graph="&ns_graphs;"
	 xmlns="http://www.w3.org/2000/svg" xmlns:xlink="http://www.w3.org/1999/xlink" x="0px" y="0px" viewBox="0 0 40 26"
	 enable-background="new 0 0 40 26" xml:space="preserve">
<metadata>
	<sfw  xmlns="&ns_sfw;">
		<slices></slices>
		<sliceSourceBounds  height="26" width="40" x="0" y="-33" bottomLeftOrigin="true"></sliceSourceBounds>
	</sfw>
</metadata>
<polygon fill="#C2185B" points="27.7,26 0,26 12.3,0 40,0 "/>
<g id="XMLID_231_">
	<path id="XMLID_232_" fill="#F5F5F5" d="M26,10.2c-0.1,1.2-0.9,2.8-2.4,4.8c-1.6,2.1-3,3.2-4.1,3.2c-0.7,0-1.3-0.6-1.8-1.9
		c-0.3-1.2-0.6-2.4-1-3.6c-0.4-1.3-0.7-1.9-1.2-1.9c-0.1,0-0.4,0.2-0.9,0.6L14,10.6c0.6-0.5,1.2-1,1.8-1.6c0.8-0.7,1.4-1,1.8-1.1
		c0.9-0.1,1.5,0.6,1.7,1.9c0.2,1.5,0.4,2.4,0.5,2.7c0.3,1.2,0.6,1.8,0.9,1.8c0.2,0,0.6-0.4,1.1-1.2c0.5-0.8,0.8-1.4,0.8-1.8
		c0.1-0.7-0.2-1-0.8-1c-0.3,0-0.6,0.1-0.9,0.2c0.6-1.9,1.7-2.9,3.4-2.8C25.5,7.8,26.1,8.6,26,10.2z"/>
</g>
</svg>
