<?xml version="1.0" encoding="utf-8"?>
<!-- Generator: Adobe Illustrator 18.0.0, SVG Export Plug-In . SVG Version: 6.00 Build 0)  -->
<!DOCTYPE svg PUBLIC "-//W3C//DTD SVG 1.1//EN" "http://www.w3.org/Graphics/SVG/1.1/DTD/svg11.dtd" [
	<!ENTITY ns_extend "http://ns.adobe.com/Extensibility/1.0/">
	<!ENTITY ns_ai "http://ns.adobe.com/AdobeIllustrator/10.0/">
	<!ENTITY ns_graphs "http://ns.adobe.com/Graphs/1.0/">
	<!ENTITY ns_vars "http://ns.adobe.com/Variables/1.0/">
	<!ENTITY ns_imrep "http://ns.adobe.com/ImageReplacement/1.0/">
	<!ENTITY ns_sfw "http://ns.adobe.com/SaveForWeb/1.0/">
	<!ENTITY ns_custom "http://ns.adobe.com/GenericCustomNamespace/1.0/">
	<!ENTITY ns_adobe_xpath "http://ns.adobe.com/XPath/1.0/">
]>
<svg version="1.1" id="Layer_1" xmlns:x="&ns_extend;" xmlns:i="&ns_ai;" xmlns:graph="&ns_graphs;"
	 xmlns="http://www.w3.org/2000/svg" xmlns:xlink="http://www.w3.org/1999/xlink" x="0px" y="0px" viewBox="0 0 40 26"
	 enable-background="new 0 0 40 26" xml:space="preserve">
<metadata>
	<sfw  xmlns="&ns_sfw;">
		<slices></slices>
		<sliceSourceBounds  height="26" width="40" x="0" y="-33" bottomLeftOrigin="true"></sliceSourceBounds>
	</sfw>
</metadata>
<polygon fill="#C2185B" points="27.7,26 0,26 12.3,0 40,0 "/>
<path fill="#F5F5F5" d="M23.7,7h-7.4C15,7,14,8,14,9.3v2.4v4.9c0,1.3,1,2.3,2.3,2.3h7.4c1.3,0,2.3-1,2.3-2.3v-4.9V9.3
	C26,8,25,7,23.7,7z M24.3,8.4l0.3,0v0.3v1.8l-2,0l0-2L24.3,8.4z M18.3,11.8c0.4-0.5,1-0.9,1.7-0.9s1.3,0.3,1.7,0.9
	c0.3,0.3,0.4,0.8,0.4,1.2c0,1.2-0.9,2.1-2.1,2.1c-1.2,0-2.1-0.9-2.1-2.1C17.9,12.5,18,12.1,18.3,11.8z M24.8,16.7
	c0,0.6-0.5,1.1-1.1,1.1h-7.4c-0.6,0-1.1-0.5-1.1-1.1v-4.9H17c-0.2,0.4-0.2,0.8-0.2,1.2c0,1.8,1.5,3.3,3.3,3.3c1.8,0,3.3-1.5,3.3-3.3
	c0-0.4-0.1-0.9-0.2-1.2h1.8V16.7z"/>
</svg>
