<?xml version="1.0" encoding="utf-8"?>
<!-- Generator: Adobe Illustrator 18.0.0, SVG Export Plug-In . SVG Version: 6.00 Build 0)  -->
<!DOCTYPE svg PUBLIC "-//W3C//DTD SVG 1.1//EN" "http://www.w3.org/Graphics/SVG/1.1/DTD/svg11.dtd" [
	<!ENTITY ns_extend "http://ns.adobe.com/Extensibility/1.0/">
	<!ENTITY ns_ai "http://ns.adobe.com/AdobeIllustrator/10.0/">
	<!ENTITY ns_graphs "http://ns.adobe.com/Graphs/1.0/">
	<!ENTITY ns_vars "http://ns.adobe.com/Variables/1.0/">
	<!ENTITY ns_imrep "http://ns.adobe.com/ImageReplacement/1.0/">
	<!ENTITY ns_sfw "http://ns.adobe.com/SaveForWeb/1.0/">
	<!ENTITY ns_custom "http://ns.adobe.com/GenericCustomNamespace/1.0/">
	<!ENTITY ns_adobe_xpath "http://ns.adobe.com/XPath/1.0/">
]>
<svg version="1.1" id="Layer_1" xmlns:x="&ns_extend;" xmlns:i="&ns_ai;" xmlns:graph="&ns_graphs;"
	 xmlns="http://www.w3.org/2000/svg" xmlns:xlink="http://www.w3.org/1999/xlink" x="0px" y="0px" viewBox="26 26 28 28"
	 enable-background="new 26 26 28 28" xml:space="preserve">
<metadata>
	<sfw  xmlns="&ns_sfw;">
		<slices></slices>
		<sliceSourceBounds  height="28" width="28" y="26" x="26" bottomLeftOrigin="true"></sliceSourceBounds>
	</sfw>
</metadata>
<g>
	<path d="M49.6,26H30.4C28,26,26,28,26,30.4v19.2c0,2.4,2,4.4,4.4,4.4h19.2c2.4,0,4.4-2,4.4-4.4V30.4C54,28,52,26,49.6,26z
		 M46.6,29.2h3.6l0,0c0.4,0,0.6,0.2,0.6,0.6v3.6c0,0.4-0.2,0.6-0.6,0.6h-3.6c-0.4,0-0.6-0.2-0.6-0.6v-3.6
		C46,29.6,46.2,29.2,46.6,29.2z M35.8,37.6c0-0.2,0.2-0.4,0.2-0.4c0.8-1.2,2.4-2,4-2s3.2,0.8,4,2c0.2,0.2,0.2,0.4,0.2,0.4
		c0.4,0.8,0.6,1.6,0.6,2.4c0,2.8-2.2,5-5,5s-5-2.2-5-5C35,39.2,35.4,38.4,35.8,37.6z M51.2,48.6c0,1.4-1.2,2.6-2.6,2.6H31.4
		c-1.4,0-2.6-1.2-2.6-2.6V37.2H33c-0.2,0.2-0.2,0.6-0.2,0.8c-0.2,0.6-0.2,1.4-0.2,2c0,4.2,3.4,7.6,7.6,7.6s7.6-3.4,7.6-7.6
		c0-0.8-0.2-1.4-0.2-2c0-0.2-0.2-0.6-0.2-0.8h4.2v11.4H51.2z"/>
</g>
</svg>
